<svg width="11" height="15" viewBox="0 0 11 15" fill="none" xmlns="http://www.w3.org/2000/svg">
<path d="M6.375 4.46875V0.75H0.90625C0.523438 0.75 0.25 1.05078 0.25 1.40625V14.0938C0.25 14.4766 0.523438 14.75 0.90625 14.75H10.0938C10.4492 14.75 10.75 14.4766 10.75 14.0938V5.125H7.03125C6.64844 5.125 6.375 4.85156 6.375 4.46875ZM8.01562 7.39453L6.375 9.9375L8.01562 12.5078C8.15234 12.7266 7.98828 13 7.74219 13H6.78516C6.64844 13 6.53906 12.9453 6.48438 12.8359C5.9375 11.8516 5.5 10.9492 5.5 10.9492C5.30859 11.3594 5.22656 11.4961 4.48828 12.8359C4.43359 12.9453 4.32422 13.0273 4.1875 13.0273H3.25781C2.98438 13.0273 2.82031 12.7266 2.95703 12.5078L4.625 9.96484L2.95703 7.39453C2.82031 7.17578 2.98438 6.90234 3.25781 6.90234H4.1875C4.32422 6.90234 4.43359 6.95703 4.48828 7.06641C5.19922 8.40625 5.03516 7.96875 5.5 8.92578C5.5 8.92578 5.66406 8.625 6.48438 7.06641C6.53906 6.95703 6.64844 6.90234 6.78516 6.90234H7.74219C7.98828 6.875 8.15234 7.17578 8.01562 7.39453ZM10.75 4.08594C10.75 3.92188 10.668 3.75781 10.5586 3.62109L7.87891 0.941406C7.74219 0.832031 7.57812 0.75 7.41406 0.75H7.25V4.25H10.75V4.08594Z" fill="#34B53A"/>
</svg>
