<svg width="33" height="32" viewBox="0 0 33 32" fill="none" xmlns="http://www.w3.org/2000/svg">
<circle cx="16.5" cy="16" r="15.5" fill="#FEFEFE" stroke="#CCD4DB"/>
<path d="M22.6202 10.75C21.8252 9.95291 20.7713 9.46641 19.649 9.37838C18.5266 9.29035 17.4098 9.6066 16.5002 10.27C15.5459 9.56023 14.3582 9.23839 13.1761 9.36928C11.9941 9.50017 10.9055 10.0741 10.1297 10.9754C9.35384 11.8768 8.94832 13.0386 8.99481 14.227C9.04129 15.4154 9.53632 16.542 10.3802 17.38L15.0377 22.045C15.4277 22.4288 15.953 22.644 16.5002 22.644C17.0474 22.644 17.5727 22.4288 17.9627 22.045L22.6202 17.38C23.4959 16.499 23.9874 15.3072 23.9874 14.065C23.9874 12.8228 23.4959 11.6311 22.6202 10.75ZM21.5627 16.345L16.9052 21.0025C16.8522 21.056 16.7891 21.0985 16.7196 21.1275C16.6501 21.1565 16.5755 21.1714 16.5002 21.1714C16.4249 21.1714 16.3503 21.1565 16.2808 21.1275C16.2113 21.0985 16.1482 21.056 16.0952 21.0025L11.4377 16.3225C10.8495 15.7213 10.5202 14.9136 10.5202 14.0725C10.5202 13.2314 10.8495 12.4237 11.4377 11.8225C12.0371 11.2307 12.8454 10.8989 13.6877 10.8989C14.53 10.8989 15.3383 11.2307 15.9377 11.8225C16.0074 11.8928 16.0904 11.9486 16.1818 11.9867C16.2732 12.0247 16.3712 12.0444 16.4702 12.0444C16.5692 12.0444 16.6672 12.0247 16.7586 11.9867C16.85 11.9486 16.933 11.8928 17.0027 11.8225C17.6021 11.2307 18.4104 10.8989 19.2527 10.8989C20.095 10.8989 20.9033 11.2307 21.5027 11.8225C22.099 12.4159 22.4391 13.2191 22.4504 14.0603C22.4616 14.9014 22.1429 15.7135 21.5627 16.3225V16.345Z" fill="#F2994A"/>
</svg>
