<svg width="12" height="15" viewBox="0 0 12 15" fill="none" xmlns="http://www.w3.org/2000/svg">
<path d="M6.02734 8.1875H5.26172V9.82812H6C6.24609 9.82812 6.4375 9.74609 6.57422 9.60938C6.84766 9.28125 6.84766 8.70703 6.60156 8.40625C6.46484 8.24219 6.27344 8.1875 6.02734 8.1875ZM11.0586 3.62109L8.37891 0.941406C8.24219 0.832031 8.07812 0.75 7.91406 0.75H7.75V4.25H11.25V4.08594C11.25 3.92188 11.168 3.75781 11.0586 3.62109ZM6.875 4.46875V0.75H1.40625C1.02344 0.75 0.75 1.05078 0.75 1.40625V14.0938C0.75 14.4766 1.02344 14.75 1.40625 14.75H10.5938C10.9492 14.75 11.25 14.4766 11.25 14.0938V5.125H7.53125C7.14844 5.125 6.875 4.85156 6.875 4.46875ZM8.32422 9.00781C8.32422 11.4688 5.89062 11.1133 5.26172 11.1133V12.6719C5.26172 12.8633 5.125 13 4.93359 13H4.11328C3.92188 13 3.78516 12.8633 3.78516 12.6719V7.23047C3.78516 7.03906 3.92188 6.90234 4.11328 6.90234H6.32812C7.53125 6.90234 8.32422 7.77734 8.32422 9.00781Z" fill="#FFB200"/>
</svg>
