<svg width="33" height="32" viewBox="0 0 33 32" fill="none" xmlns="http://www.w3.org/2000/svg">
<circle cx="16.5" cy="16" r="15.5" fill="#FEFEFE" stroke="#CCD4DB"/>
<path d="M12 15.3333C11.8517 15.3333 11.7067 15.3724 11.5833 15.4457C11.46 15.5189 11.3639 15.6231 11.3071 15.7449C11.2503 15.8667 11.2355 16.0007 11.2644 16.1301C11.2933 16.2594 11.3648 16.3782 11.4697 16.4714C11.5746 16.5646 11.7082 16.6281 11.8537 16.6539C11.9992 16.6796 12.15 16.6664 12.287 16.6159C12.4241 16.5655 12.5412 16.48 12.6236 16.3704C12.706 16.2607 12.75 16.1318 12.75 16C12.75 15.8232 12.671 15.6536 12.5303 15.5286C12.3897 15.4036 12.1989 15.3333 12 15.3333ZM21 15.3333C20.8517 15.3333 20.7067 15.3724 20.5833 15.4457C20.46 15.5189 20.3639 15.6231 20.3071 15.7449C20.2503 15.8667 20.2355 16.0007 20.2644 16.1301C20.2934 16.2594 20.3648 16.3782 20.4697 16.4714C20.5746 16.5646 20.7082 16.6281 20.8537 16.6539C20.9992 16.6796 21.15 16.6664 21.287 16.6159C21.4241 16.5655 21.5412 16.48 21.6236 16.3704C21.706 16.2607 21.75 16.1318 21.75 16C21.75 15.8232 21.671 15.6536 21.5303 15.5286C21.3897 15.4036 21.1989 15.3333 21 15.3333ZM22.5 11.3333H10.5C9.90326 11.3333 9.33097 11.544 8.90901 11.9191C8.48705 12.2942 8.25 12.8029 8.25 13.3333V18.6667C8.25 19.1971 8.48705 19.7058 8.90901 20.0809C9.33097 20.4559 9.90326 20.6667 10.5 20.6667H22.5C23.0967 20.6667 23.669 20.4559 24.091 20.0809C24.5129 19.7058 24.75 19.1971 24.75 18.6667V13.3333C24.75 12.8029 24.5129 12.2942 24.091 11.9191C23.669 11.544 23.0967 11.3333 22.5 11.3333ZM23.25 18.6667C23.25 18.8435 23.171 19.013 23.0303 19.1381C22.8897 19.2631 22.6989 19.3333 22.5 19.3333H10.5C10.3011 19.3333 10.1103 19.2631 9.96967 19.1381C9.82902 19.013 9.75 18.8435 9.75 18.6667V13.3333C9.75 13.1565 9.82902 12.9869 9.96967 12.8619C10.1103 12.7369 10.3011 12.6667 10.5 12.6667H22.5C22.6989 12.6667 22.8897 12.7369 23.0303 12.8619C23.171 12.9869 23.25 13.1565 23.25 13.3333V18.6667ZM16.5 14C16.055 14 15.62 14.1173 15.25 14.3371C14.88 14.5568 14.5916 14.8692 14.4213 15.2346C14.251 15.6001 14.2064 16.0022 14.2932 16.3902C14.38 16.7781 14.5943 17.1345 14.909 17.4142C15.2237 17.6939 15.6246 17.8844 16.061 17.9616C16.4975 18.0387 16.9499 17.9991 17.361 17.8478C17.7722 17.6964 18.1236 17.44 18.3708 17.1111C18.618 16.7822 18.75 16.3956 18.75 16C18.75 15.4696 18.5129 14.9609 18.091 14.5858C17.669 14.2107 17.0967 14 16.5 14ZM16.5 16.6667C16.3517 16.6667 16.2067 16.6276 16.0833 16.5543C15.96 16.4811 15.8639 16.3769 15.8071 16.2551C15.7503 16.1333 15.7355 15.9993 15.7644 15.8699C15.7933 15.7406 15.8648 15.6218 15.9697 15.5286C16.0746 15.4354 16.2082 15.3719 16.3537 15.3461C16.4992 15.3204 16.65 15.3336 16.787 15.3841C16.9241 15.4345 17.0412 15.52 17.1236 15.6296C17.206 15.7392 17.25 15.8681 17.25 16C17.25 16.1768 17.171 16.3464 17.0303 16.4714C16.8897 16.5964 16.6989 16.6667 16.5 16.6667Z" fill="#4056B7"/>
</svg>
