<svg width="33" height="32" viewBox="0 0 33 32" fill="none" xmlns="http://www.w3.org/2000/svg">
<circle cx="16.5" cy="16" r="15.5" fill="#FEFEFE" stroke="#CCD4DB"/>
<path d="M17.9999 20.5C18.1988 20.5 18.3895 20.421 18.5302 20.2803C18.6708 20.1397 18.7499 19.9489 18.7499 19.75L18.7499 11.0575L20.4674 12.7825C20.6086 12.9237 20.8001 13.0031 20.9999 13.0031C21.1996 13.0031 21.3911 12.9237 21.5324 12.7825C21.6736 12.6413 21.7529 12.4497 21.7529 12.25C21.7529 12.0503 21.6736 11.8587 21.5324 11.7175L18.5324 8.7175C18.4269 8.61343 18.293 8.54293 18.1475 8.5149C18.002 8.48687 17.8514 8.50256 17.7149 8.56C17.5779 8.61626 17.4607 8.71181 17.3779 8.8346C17.2952 8.95739 17.2506 9.10193 17.2499 9.25L17.2499 19.75C17.2499 19.9489 17.3289 20.1397 17.4695 20.2803C17.6102 20.421 17.8009 20.5 17.9999 20.5ZM15.2849 23.44C15.4218 23.3837 15.5391 23.2882 15.6218 23.1654C15.7046 23.0426 15.7491 22.8981 15.7499 22.75L15.7499 12.25C15.7499 12.0511 15.6708 11.8603 15.5302 11.7197C15.3895 11.579 15.1988 11.5 14.9999 11.5C14.8009 11.5 14.6102 11.579 14.4695 11.7197C14.3289 11.8603 14.2499 12.0511 14.2499 12.25L14.2499 20.9425L12.5324 19.2175C12.4626 19.1472 12.3797 19.0914 12.2883 19.0533C12.1969 19.0153 12.0989 18.9956 11.9999 18.9956C11.9009 18.9956 11.8028 19.0153 11.7114 19.0533C11.62 19.0914 11.5371 19.1472 11.4674 19.2175C11.3971 19.2872 11.3413 19.3702 11.3032 19.4616C11.2651 19.553 11.2455 19.651 11.2455 19.75C11.2455 19.849 11.2651 19.947 11.3032 20.0384C11.3413 20.1298 11.3971 20.2128 11.4674 20.2825L14.4674 23.2825C14.5728 23.3866 14.7068 23.4571 14.8522 23.4851C14.9977 23.5131 15.1483 23.4974 15.2849 23.44Z" fill="#27AE60"/>
</svg>
