<svg width="48" height="49" viewBox="0 0 48 49" fill="none" xmlns="http://www.w3.org/2000/svg">
<g id="u:file-alt">
<path id="Vector" d="M18 20.5H20C20.5304 20.5 21.0391 20.2893 21.4142 19.9142C21.7893 19.5391 22 19.0304 22 18.5C22 17.9696 21.7893 17.4609 21.4142 17.0858C21.0391 16.7107 20.5304 16.5 20 16.5H18C17.4696 16.5 16.9609 16.7107 16.5858 17.0858C16.2107 17.4609 16 17.9696 16 18.5C16 19.0304 16.2107 19.5391 16.5858 19.9142C16.9609 20.2893 17.4696 20.5 18 20.5V20.5ZM18 24.5C17.4696 24.5 16.9609 24.7107 16.5858 25.0858C16.2107 25.4609 16 25.9696 16 26.5C16 27.0304 16.2107 27.5391 16.5858 27.9142C16.9609 28.2893 17.4696 28.5 18 28.5H30C30.5304 28.5 31.0391 28.2893 31.4142 27.9142C31.7893 27.5391 32 27.0304 32 26.5C32 25.9696 31.7893 25.4609 31.4142 25.0858C31.0391 24.7107 30.5304 24.5 30 24.5H18ZM40 18.38C39.9792 18.1963 39.9389 18.0153 39.88 17.84V17.66C39.7838 17.4544 39.6556 17.2653 39.5 17.1V17.1L27.5 5.1C27.3347 4.94443 27.1456 4.81616 26.94 4.72C26.8803 4.71152 26.8197 4.71152 26.76 4.72C26.5568 4.60348 26.3324 4.52869 26.1 4.5H14C12.4087 4.5 10.8826 5.13214 9.75736 6.25736C8.63214 7.38258 8 8.9087 8 10.5V38.5C8 40.0913 8.63214 41.6174 9.75736 42.7426C10.8826 43.8679 12.4087 44.5 14 44.5H34C35.5913 44.5 37.1174 43.8679 38.2426 42.7426C39.3679 41.6174 40 40.0913 40 38.5V18.5C40 18.5 40 18.5 40 18.38ZM28 11.32L33.18 16.5H30C29.4696 16.5 28.9609 16.2893 28.5858 15.9142C28.2107 15.5391 28 15.0304 28 14.5V11.32ZM36 38.5C36 39.0304 35.7893 39.5391 35.4142 39.9142C35.0391 40.2893 34.5304 40.5 34 40.5H14C13.4696 40.5 12.9609 40.2893 12.5858 39.9142C12.2107 39.5391 12 39.0304 12 38.5V10.5C12 9.96957 12.2107 9.46086 12.5858 9.08579C12.9609 8.71071 13.4696 8.5 14 8.5H24V14.5C24 16.0913 24.6321 17.6174 25.7574 18.7426C26.8826 19.8679 28.4087 20.5 30 20.5H36V38.5ZM30 32.5H18C17.4696 32.5 16.9609 32.7107 16.5858 33.0858C16.2107 33.4609 16 33.9696 16 34.5C16 35.0304 16.2107 35.5391 16.5858 35.9142C16.9609 36.2893 17.4696 36.5 18 36.5H30C30.5304 36.5 31.0391 36.2893 31.4142 35.9142C31.7893 35.5391 32 35.0304 32 34.5C32 33.9696 31.7893 33.4609 31.4142 33.0858C31.0391 32.7107 30.5304 32.5 30 32.5Z" fill="#696C80"/>
</g>
</svg>
