<svg width="21" height="21" viewBox="0 0 21 21" fill="none" xmlns="http://www.w3.org/2000/svg">
<path d="M15.5083 9.90833L11.3417 5.74167C11.2624 5.6658 11.169 5.60633 11.0667 5.56667C10.8638 5.48332 10.6362 5.48332 10.4333 5.56667C10.331 5.60633 10.2376 5.6658 10.1583 5.74167L5.99167 9.90833C5.91397 9.98603 5.85234 10.0783 5.81029 10.1798C5.76824 10.2813 5.7466 10.3901 5.7466 10.5C5.7466 10.7219 5.83475 10.9347 5.99167 11.0917C6.14859 11.2486 6.36142 11.3367 6.58334 11.3367C6.80526 11.3367 7.01809 11.2486 7.17501 11.0917L9.91667 8.34167V14.6667C9.91667 14.8877 10.0045 15.0996 10.1608 15.2559C10.317 15.4122 10.529 15.5 10.75 15.5C10.971 15.5 11.183 15.4122 11.3393 15.2559C11.4955 15.0996 11.5833 14.8877 11.5833 14.6667V8.34167L14.325 11.0917C14.4025 11.1698 14.4946 11.2318 14.5962 11.2741C14.6977 11.3164 14.8067 11.3382 14.9167 11.3382C15.0267 11.3382 15.1356 11.3164 15.2372 11.2741C15.3387 11.2318 15.4309 11.1698 15.5083 11.0917C15.5864 11.0142 15.6484 10.922 15.6908 10.8205C15.7331 10.7189 15.7548 10.61 15.7548 10.5C15.7548 10.39 15.7331 10.2811 15.6908 10.1795C15.6484 10.078 15.5864 9.9858 15.5083 9.90833Z" fill="#4056B7"/>
</svg>
