<svg width="20" height="21" viewBox="0 0 20 21" fill="none" xmlns="http://www.w3.org/2000/svg">
<path d="M14.7583 11.0917L10.5917 15.2583C10.5124 15.3342 10.419 15.3937 10.3167 15.4333C10.1138 15.5167 9.88621 15.5167 9.68333 15.4333C9.58103 15.3937 9.48758 15.3342 9.40833 15.2583L5.24166 11.0917C5.16396 11.014 5.10233 10.9217 5.06028 10.8202C5.01823 10.7187 4.99658 10.6099 4.99658 10.5C4.99658 10.2781 5.08474 10.0653 5.24166 9.90833C5.39858 9.75141 5.61141 9.66326 5.83333 9.66326C6.05524 9.66326 6.26807 9.75141 6.42499 9.90833L9.16666 12.6583V6.33333C9.16666 6.11232 9.25446 5.90036 9.41074 5.74408C9.56702 5.5878 9.77898 5.5 9.99999 5.5C10.221 5.5 10.433 5.5878 10.5892 5.74408C10.7455 5.90036 10.8333 6.11232 10.8333 6.33333V12.6583L13.575 9.90833C13.6525 9.83023 13.7446 9.76823 13.8462 9.72592C13.9477 9.68362 14.0566 9.66184 14.1667 9.66184C14.2767 9.66184 14.3856 9.68362 14.4871 9.72592C14.5887 9.76823 14.6809 9.83023 14.7583 9.90833C14.8364 9.9858 14.8984 10.078 14.9407 10.1795C14.983 10.2811 15.0048 10.39 15.0048 10.5C15.0048 10.61 14.983 10.7189 14.9407 10.8205C14.8984 10.922 14.8364 11.0142 14.7583 11.0917Z" fill="#EB5757"/>
</svg>
