<svg width="145" height="40" viewBox="0 0 145 40" fill="none" xmlns="http://www.w3.org/2000/svg">
<rect width="145" height="40" fill="#FEFEFE"/>
<path d="M26.3265 16.2727V25H25.2697V16.2727H26.3265ZM28.3091 25V18.4545H29.2807V19.4773H29.3659C29.5023 19.1278 29.7225 18.8565 30.0265 18.6634C30.3304 18.4673 30.6955 18.3693 31.1216 18.3693C31.5534 18.3693 31.9128 18.4673 32.1998 18.6634C32.4895 18.8565 32.7154 19.1278 32.8773 19.4773H32.9455C33.1131 19.1392 33.3645 18.8707 33.6998 18.6719C34.035 18.4702 34.437 18.3693 34.9057 18.3693C35.4909 18.3693 35.9696 18.5526 36.3418 18.919C36.714 19.2827 36.9 19.8494 36.9 20.6193V25H35.8944V20.6193C35.8944 20.1364 35.7623 19.7912 35.498 19.5838C35.2338 19.3764 34.9228 19.2727 34.5648 19.2727C34.1046 19.2727 33.748 19.4119 33.4952 19.6903C33.2424 19.9659 33.1159 20.3153 33.1159 20.7386V25H32.0932V20.517C32.0932 20.1449 31.9725 19.8452 31.731 19.6179C31.4895 19.3878 31.1784 19.2727 30.7978 19.2727C30.5364 19.2727 30.2921 19.3423 30.0648 19.4815C29.8404 19.6207 29.6586 19.8139 29.5194 20.0611C29.383 20.3054 29.3148 20.5881 29.3148 20.9091V25H28.3091ZM41.3979 25.1364C40.807 25.1364 40.2885 24.9957 39.8425 24.7145C39.3993 24.4332 39.0527 24.0398 38.8027 23.5341C38.5556 23.0284 38.432 22.4375 38.432 21.7614C38.432 21.0795 38.5556 20.4844 38.8027 19.9759C39.0527 19.4673 39.3993 19.0724 39.8425 18.7912C40.2885 18.5099 40.807 18.3693 41.3979 18.3693C41.9888 18.3693 42.5059 18.5099 42.949 18.7912C43.3951 19.0724 43.7417 19.4673 43.9888 19.9759C44.2388 20.4844 44.3638 21.0795 44.3638 21.7614C44.3638 22.4375 44.2388 23.0284 43.9888 23.5341C43.7417 24.0398 43.3951 24.4332 42.949 24.7145C42.5059 24.9957 41.9888 25.1364 41.3979 25.1364ZM41.3979 24.233C41.8468 24.233 42.2161 24.1179 42.5059 23.8878C42.7956 23.6577 43.0101 23.3551 43.1493 22.9801C43.2885 22.6051 43.3581 22.1989 43.3581 21.7614C43.3581 21.3239 43.2885 20.9162 43.1493 20.5384C43.0101 20.1605 42.7956 19.8551 42.5059 19.6222C42.2161 19.3892 41.8468 19.2727 41.3979 19.2727C40.949 19.2727 40.5797 19.3892 40.29 19.6222C40.0002 19.8551 39.7857 20.1605 39.6465 20.5384C39.5073 20.9162 39.4377 21.3239 39.4377 21.7614C39.4377 22.1989 39.5073 22.6051 39.6465 22.9801C39.7857 23.3551 40.0002 23.6577 40.29 23.8878C40.5797 24.1179 40.949 24.233 41.3979 24.233ZM46.0353 25V16.2727H47.041V19.4943H47.1262C47.2001 19.3807 47.3024 19.2358 47.4331 19.0597C47.5666 18.8807 47.7569 18.7216 48.0041 18.5824C48.2541 18.4403 48.5922 18.3693 49.0183 18.3693C49.5694 18.3693 50.0552 18.5071 50.4757 18.7827C50.8961 19.0582 51.2243 19.4489 51.4601 19.9545C51.6958 20.4602 51.8137 21.0568 51.8137 21.7443C51.8137 22.4375 51.6958 23.0384 51.4601 23.5469C51.2243 24.0526 50.8975 24.4446 50.4799 24.723C50.0623 24.9986 49.5808 25.1364 49.0353 25.1364C48.6149 25.1364 48.2782 25.0668 48.0254 24.9276C47.7725 24.7855 47.5779 24.625 47.4416 24.446C47.3052 24.2642 47.2001 24.1136 47.1262 23.9943H47.0069V25H46.0353ZM47.024 21.7273C47.024 22.2216 47.0964 22.6577 47.2413 23.0355C47.3862 23.4105 47.5978 23.7045 47.8762 23.9176C48.1547 24.1278 48.4956 24.233 48.899 24.233C49.3194 24.233 49.6703 24.1222 49.9515 23.9006C50.2356 23.6761 50.4487 23.375 50.5907 22.9972C50.7356 22.6165 50.8081 22.1932 50.8081 21.7273C50.8081 21.267 50.737 20.8523 50.595 20.483C50.4558 20.1108 50.2441 19.8168 49.96 19.6009C49.6788 19.3821 49.3251 19.2727 48.899 19.2727C48.4899 19.2727 48.1461 19.3764 47.8677 19.5838C47.5893 19.7884 47.3791 20.0753 47.237 20.4446C47.095 20.8111 47.024 21.2386 47.024 21.7273ZM53.3521 25V18.4545H54.3578V25H53.3521ZM53.8635 17.3636C53.6674 17.3636 53.4984 17.2969 53.3564 17.1634C53.2172 17.0298 53.1475 16.8693 53.1475 16.6818C53.1475 16.4943 53.2172 16.3338 53.3564 16.2003C53.4984 16.0668 53.6674 16 53.8635 16C54.0595 16 54.2271 16.0668 54.3663 16.2003C54.5083 16.3338 54.5794 16.4943 54.5794 16.6818C54.5794 16.8693 54.5083 17.0298 54.3663 17.1634C54.2271 17.2969 54.0595 17.3636 53.8635 17.3636ZM57.2054 16.2727V25H56.1998V16.2727H57.2054ZM59.0474 25V18.4545H60.0531V25H59.0474ZM59.5588 17.3636C59.3627 17.3636 59.1937 17.2969 59.0517 17.1634C58.9125 17.0298 58.8429 16.8693 58.8429 16.6818C58.8429 16.4943 58.9125 16.3338 59.0517 16.2003C59.1937 16.0668 59.3627 16 59.5588 16C59.7548 16 59.9224 16.0668 60.0616 16.2003C60.2037 16.3338 60.2747 16.4943 60.2747 16.6818C60.2747 16.8693 60.2037 17.0298 60.0616 17.1634C59.9224 17.2969 59.7548 17.3636 59.5588 17.3636ZM63.8212 25.1534C63.4064 25.1534 63.03 25.0753 62.6919 24.919C62.3539 24.7599 62.0854 24.5312 61.8865 24.233C61.6877 23.9318 61.5882 23.5682 61.5882 23.142C61.5882 22.767 61.6621 22.4631 61.8098 22.2301C61.9576 21.9943 62.155 21.8097 62.4022 21.6761C62.6493 21.5426 62.9221 21.4432 63.2203 21.3778C63.5215 21.3097 63.824 21.2557 64.128 21.2159C64.5257 21.1648 64.8482 21.1264 65.0953 21.1009C65.3453 21.0724 65.5272 21.0256 65.6408 20.9602C65.7573 20.8949 65.8155 20.7812 65.8155 20.6193V20.5852C65.8155 20.1648 65.7005 19.8381 65.4703 19.6051C65.2431 19.3722 64.8979 19.2557 64.4348 19.2557C63.9547 19.2557 63.5783 19.3608 63.3056 19.571C63.0328 19.7812 62.8411 20.0057 62.7303 20.2443L61.7757 19.9034C61.9462 19.5057 62.1735 19.196 62.4576 18.9744C62.7445 18.75 63.057 18.5937 63.3951 18.5057C63.736 18.4148 64.0712 18.3693 64.4007 18.3693C64.611 18.3693 64.8525 18.3949 65.1252 18.446C65.4007 18.4943 65.6664 18.5952 65.9221 18.7486C66.1806 18.902 66.3951 19.1335 66.5655 19.4432C66.736 19.7528 66.8212 20.1676 66.8212 20.6875V25H65.8155V24.1136H65.7644C65.6962 24.2557 65.5826 24.4077 65.4235 24.5696C65.2644 24.7315 65.0527 24.8693 64.7885 24.983C64.5243 25.0966 64.2019 25.1534 63.8212 25.1534ZM63.9746 24.25C64.3723 24.25 64.7076 24.1719 64.9803 24.0156C65.2559 23.8594 65.4632 23.6577 65.6025 23.4105C65.7445 23.1634 65.8155 22.9034 65.8155 22.6307V21.7102C65.7729 21.7614 65.6792 21.8082 65.5343 21.8509C65.3922 21.8906 65.2275 21.9261 65.04 21.9574C64.8553 21.9858 64.6749 22.0114 64.4988 22.0341C64.3255 22.054 64.1848 22.071 64.0769 22.0852C63.8155 22.1193 63.5712 22.1747 63.3439 22.2514C63.1195 22.3253 62.9377 22.4375 62.7985 22.5881C62.6621 22.7358 62.5939 22.9375 62.5939 23.1932C62.5939 23.5426 62.7232 23.8068 62.9817 23.9858C63.2431 24.1619 63.574 24.25 63.9746 24.25ZM64.0087 17.5682L65.0485 15.5909H66.2246L64.8951 17.5682H64.0087ZM68.6568 25V18.4545H69.6284V19.4432H69.6966C69.8159 19.1193 70.0318 18.8565 70.3443 18.6548C70.6568 18.4531 71.0091 18.3523 71.4011 18.3523C71.475 18.3523 71.5673 18.3537 71.6781 18.3565C71.7889 18.3594 71.8727 18.3636 71.9295 18.3693V19.392C71.8954 19.3835 71.8173 19.3707 71.6951 19.3537C71.5758 19.3338 71.4494 19.3239 71.3159 19.3239C70.9977 19.3239 70.7136 19.3906 70.4636 19.5241C70.2164 19.6548 70.0204 19.8366 69.8755 20.0696C69.7335 20.2997 69.6625 20.5625 69.6625 20.858V25H68.6568ZM73.1216 25V18.4545H74.1273V25H73.1216ZM73.633 17.3636C73.437 17.3636 73.2679 17.2969 73.1259 17.1634C72.9867 17.0298 72.9171 16.8693 72.9171 16.6818C72.9171 16.4943 72.9867 16.3338 73.1259 16.2003C73.2679 16.0668 73.437 16 73.633 16C73.829 16 73.9966 16.0668 74.1358 16.2003C74.2779 16.3338 74.3489 16.4943 74.3489 16.6818C74.3489 16.8693 74.2779 17.0298 74.1358 17.1634C73.9966 17.2969 73.829 17.3636 73.633 17.3636ZM77.8954 25.1534C77.4806 25.1534 77.1042 25.0753 76.7662 24.919C76.4281 24.7599 76.1596 24.5312 75.9608 24.233C75.7619 23.9318 75.6625 23.5682 75.6625 23.142C75.6625 22.767 75.7363 22.4631 75.8841 22.2301C76.0318 21.9943 76.2292 21.8097 76.4764 21.6761C76.7235 21.5426 76.9963 21.4432 77.2946 21.3778C77.5957 21.3097 77.8983 21.2557 78.2022 21.2159C78.6 21.1648 78.9224 21.1264 79.1696 21.1009C79.4196 21.0724 79.6014 21.0256 79.715 20.9602C79.8315 20.8949 79.8897 20.7812 79.8897 20.6193V20.5852C79.8897 20.1648 79.7747 19.8381 79.5446 19.6051C79.3173 19.3722 78.9721 19.2557 78.5091 19.2557C78.0289 19.2557 77.6525 19.3608 77.3798 19.571C77.1071 19.7812 76.9153 20.0057 76.8045 20.2443L75.85 19.9034C76.0204 19.5057 76.2477 19.196 76.5318 18.9744C76.8187 18.75 77.1312 18.5937 77.4693 18.5057C77.8102 18.4148 78.1454 18.3693 78.475 18.3693C78.6852 18.3693 78.9267 18.3949 79.1994 18.446C79.475 18.4943 79.7406 18.5952 79.9963 18.7486C80.2548 18.902 80.4693 19.1335 80.6397 19.4432C80.8102 19.7528 80.8954 20.1676 80.8954 20.6875V25H79.8897V24.1136H79.8386C79.7704 24.2557 79.6568 24.4077 79.4977 24.5696C79.3386 24.7315 79.127 24.8693 78.8627 24.983C78.5985 25.0966 78.2761 25.1534 77.8954 25.1534ZM78.0488 24.25C78.4466 24.25 78.7818 24.1719 79.0545 24.0156C79.3301 23.8594 79.5375 23.6577 79.6767 23.4105C79.8187 23.1634 79.8897 22.9034 79.8897 22.6307V21.7102C79.8471 21.7614 79.7534 21.8082 79.6085 21.8509C79.4664 21.8906 79.3017 21.9261 79.1142 21.9574C78.9295 21.9858 78.7491 22.0114 78.573 22.0341C78.3997 22.054 78.2591 22.071 78.1511 22.0852C77.8897 22.1193 77.6454 22.1747 77.4181 22.2514C77.1937 22.3253 77.0119 22.4375 76.8727 22.5881C76.7363 22.7358 76.6681 22.9375 76.6681 23.1932C76.6681 23.5426 76.7974 23.8068 77.0559 23.9858C77.3173 24.1619 77.6483 24.25 78.0488 24.25ZM88.9355 25H86.2424V16.2727H89.0549C89.9015 16.2727 90.6259 16.4474 91.2282 16.7969C91.8304 17.1435 92.2921 17.642 92.6131 18.2926C92.9341 18.9403 93.0946 19.7159 93.0946 20.6193C93.0946 21.5284 92.9327 22.3111 92.6088 22.9673C92.285 23.6207 91.8134 24.1236 91.1941 24.4759C90.5748 24.8253 89.8219 25 88.9355 25ZM87.2992 24.0625H88.8674C89.589 24.0625 90.187 23.9233 90.6614 23.6449C91.1358 23.3665 91.4895 22.9702 91.7225 22.456C91.9554 21.9418 92.0719 21.3295 92.0719 20.6193C92.0719 19.9148 91.9569 19.3082 91.7267 18.7997C91.4966 18.2884 91.1529 17.8963 90.6955 17.6236C90.2381 17.348 89.6685 17.2102 88.9867 17.2102H87.2992V24.0625ZM94.731 25V18.4545H95.7367V25H94.731ZM95.2424 17.3636C95.0463 17.3636 94.8773 17.2969 94.7353 17.1634C94.5961 17.0298 94.5265 16.8693 94.5265 16.6818C94.5265 16.4943 94.5961 16.3338 94.7353 16.2003C94.8773 16.0668 95.0463 16 95.2424 16C95.4384 16 95.606 16.0668 95.7452 16.2003C95.8873 16.3338 95.9583 16.4943 95.9583 16.6818C95.9583 16.8693 95.8873 17.0298 95.7452 17.1634C95.606 17.2969 95.4384 17.3636 95.2424 17.3636ZM100.221 27.5909C99.7349 27.5909 99.3173 27.5284 98.9679 27.4034C98.6184 27.2812 98.3272 27.1193 98.0943 26.9176C97.8642 26.7188 97.6809 26.5057 97.5446 26.2784L98.3457 25.7159C98.4366 25.8352 98.5517 25.9716 98.6909 26.125C98.8301 26.2812 99.0204 26.4162 99.2619 26.5298C99.5062 26.6463 99.8258 26.7045 100.221 26.7045C100.749 26.7045 101.185 26.5767 101.529 26.321C101.873 26.0653 102.045 25.6648 102.045 25.1193V23.7898H101.959C101.885 23.9091 101.78 24.0568 101.644 24.233C101.51 24.4062 101.317 24.5611 101.064 24.6974C100.814 24.831 100.476 24.8977 100.05 24.8977C99.5218 24.8977 99.0474 24.7727 98.627 24.5227C98.2093 24.2727 97.8784 23.9091 97.6341 23.4318C97.3926 22.9545 97.2718 22.375 97.2718 21.6932C97.2718 21.0227 97.3897 20.4389 97.6255 19.9418C97.8613 19.4418 98.1895 19.0554 98.6099 18.7827C99.0304 18.5071 99.5162 18.3693 100.067 18.3693C100.493 18.3693 100.831 18.4403 101.081 18.5824C101.334 18.7216 101.528 18.8807 101.661 19.0597C101.797 19.2358 101.903 19.3807 101.976 19.4943H102.079V18.4545H103.05V25.1875C103.05 25.75 102.922 26.2074 102.667 26.5597C102.414 26.9148 102.073 27.1747 101.644 27.3395C101.218 27.5071 100.743 27.5909 100.221 27.5909ZM100.187 23.9943C100.59 23.9943 100.931 23.902 101.209 23.7173C101.488 23.5327 101.699 23.267 101.844 22.9205C101.989 22.5739 102.062 22.1591 102.062 21.6761C102.062 21.2045 101.991 20.7884 101.849 20.4276C101.706 20.0668 101.496 19.7841 101.218 19.5795C100.939 19.375 100.596 19.2727 100.187 19.2727C99.7605 19.2727 99.4054 19.3807 99.1213 19.5966C98.84 19.8125 98.6284 20.1023 98.4863 20.4659C98.3471 20.8295 98.2775 21.233 98.2775 21.6761C98.2775 22.1307 98.3485 22.5327 98.4906 22.8821C98.6355 23.2287 98.8485 23.5014 99.1298 23.7003C99.4139 23.8963 99.7662 23.9943 100.187 23.9943ZM104.891 25V18.4545H105.897V25H104.891ZM105.403 17.3636C105.206 17.3636 105.037 17.2969 104.895 17.1634C104.756 17.0298 104.687 16.8693 104.687 16.6818C104.687 16.4943 104.756 16.3338 104.895 16.2003C105.037 16.0668 105.206 16 105.403 16C105.599 16 105.766 16.0668 105.905 16.2003C106.047 16.3338 106.118 16.4943 106.118 16.6818C106.118 16.8693 106.047 17.0298 105.905 17.1634C105.766 17.2969 105.599 17.3636 105.403 17.3636ZM110.585 18.4545V19.3068H107.193V18.4545H110.585ZM108.182 16.8864H109.188V23.125C109.188 23.4091 109.229 23.6222 109.311 23.7642C109.396 23.9034 109.504 23.9972 109.635 24.0455C109.769 24.0909 109.909 24.1136 110.057 24.1136C110.168 24.1136 110.259 24.108 110.33 24.0966C110.401 24.0824 110.458 24.071 110.5 24.0625L110.705 24.9659C110.637 24.9915 110.541 25.017 110.419 25.0426C110.297 25.071 110.142 25.0852 109.955 25.0852C109.671 25.0852 109.392 25.0241 109.119 24.902C108.85 24.7798 108.625 24.5938 108.446 24.3438C108.27 24.0938 108.182 23.7784 108.182 23.3977V16.8864ZM114.024 25.1534C113.61 25.1534 113.233 25.0753 112.895 24.919C112.557 24.7599 112.289 24.5312 112.09 24.233C111.891 23.9318 111.791 23.5682 111.791 23.142C111.791 22.767 111.865 22.4631 112.013 22.2301C112.161 21.9943 112.358 21.8097 112.605 21.6761C112.852 21.5426 113.125 21.4432 113.423 21.3778C113.725 21.3097 114.027 21.2557 114.331 21.2159C114.729 21.1648 115.051 21.1264 115.298 21.1009C115.548 21.0724 115.73 21.0256 115.844 20.9602C115.96 20.8949 116.019 20.7812 116.019 20.6193V20.5852C116.019 20.1648 115.904 19.8381 115.673 19.6051C115.446 19.3722 115.101 19.2557 114.638 19.2557C114.158 19.2557 113.781 19.3608 113.509 19.571C113.236 19.7812 113.044 20.0057 112.933 20.2443L111.979 19.9034C112.149 19.5057 112.377 19.196 112.661 18.9744C112.948 18.75 113.26 18.5937 113.598 18.5057C113.939 18.4148 114.274 18.3693 114.604 18.3693C114.814 18.3693 115.056 18.3949 115.328 18.446C115.604 18.4943 115.869 18.5952 116.125 18.7486C116.384 18.902 116.598 19.1335 116.769 19.4432C116.939 19.7528 117.024 20.1676 117.024 20.6875V25H116.019V24.1136H115.968C115.899 24.2557 115.786 24.4077 115.627 24.5696C115.468 24.7315 115.256 24.8693 114.992 24.983C114.727 25.0966 114.405 25.1534 114.024 25.1534ZM114.178 24.25C114.575 24.25 114.911 24.1719 115.183 24.0156C115.459 23.8594 115.666 23.6577 115.806 23.4105C115.948 23.1634 116.019 22.9034 116.019 22.6307V21.7102C115.976 21.7614 115.882 21.8082 115.737 21.8509C115.595 21.8906 115.431 21.9261 115.243 21.9574C115.058 21.9858 114.878 22.0114 114.702 22.0341C114.529 22.054 114.388 22.071 114.28 22.0852C114.019 22.1193 113.774 22.1747 113.547 22.2514C113.323 22.3253 113.141 22.4375 113.002 22.5881C112.865 22.7358 112.797 22.9375 112.797 23.1932C112.797 23.5426 112.926 23.8068 113.185 23.9858C113.446 24.1619 113.777 24.25 114.178 24.25ZM119.866 16.2727V25H118.86V16.2727H119.866Z" fill="#1B212D"/>
</svg>
