<svg width="145" height="40" viewBox="0 0 145 40" fill="none" xmlns="http://www.w3.org/2000/svg">
<rect width="145" height="40" fill="#FEFEFE"/>
<path d="M27.391 16.2727V25H26.3342V16.2727H27.391ZM29.3736 25V18.4545H30.3452V19.4773H30.4304C30.5668 19.1278 30.7869 18.8565 31.0909 18.6634C31.3949 18.4673 31.7599 18.3693 32.1861 18.3693C32.6179 18.3693 32.9773 18.4673 33.2642 18.6634C33.554 18.8565 33.7798 19.1278 33.9418 19.4773H34.0099C34.1776 19.1392 34.429 18.8707 34.7642 18.6719C35.0994 18.4702 35.5014 18.3693 35.9702 18.3693C36.5554 18.3693 37.0341 18.5526 37.4062 18.919C37.7784 19.2827 37.9645 19.8494 37.9645 20.6193V25H36.9588V20.6193C36.9588 20.1364 36.8267 19.7912 36.5625 19.5838C36.2983 19.3764 35.9872 19.2727 35.6293 19.2727C35.169 19.2727 34.8125 19.4119 34.5597 19.6903C34.3068 19.9659 34.1804 20.3153 34.1804 20.7386V25H33.1577V20.517C33.1577 20.1449 33.0369 19.8452 32.7955 19.6179C32.554 19.3878 32.2429 19.2727 31.8622 19.2727C31.6009 19.2727 31.3565 19.3423 31.1293 19.4815C30.9048 19.6207 30.723 19.8139 30.5838 20.0611C30.4474 20.3054 30.3793 20.5881 30.3793 20.9091V25H29.3736ZM42.4624 25.1364C41.8714 25.1364 41.353 24.9957 40.907 24.7145C40.4638 24.4332 40.1172 24.0398 39.8672 23.5341C39.62 23.0284 39.4964 22.4375 39.4964 21.7614C39.4964 21.0795 39.62 20.4844 39.8672 19.9759C40.1172 19.4673 40.4638 19.0724 40.907 18.7912C41.353 18.5099 41.8714 18.3693 42.4624 18.3693C43.0533 18.3693 43.5703 18.5099 44.0135 18.7912C44.4595 19.0724 44.8061 19.4673 45.0533 19.9759C45.3033 20.4844 45.4283 21.0795 45.4283 21.7614C45.4283 22.4375 45.3033 23.0284 45.0533 23.5341C44.8061 24.0398 44.4595 24.4332 44.0135 24.7145C43.5703 24.9957 43.0533 25.1364 42.4624 25.1364ZM42.4624 24.233C42.9112 24.233 43.2805 24.1179 43.5703 23.8878C43.8601 23.6577 44.0746 23.3551 44.2138 22.9801C44.353 22.6051 44.4226 22.1989 44.4226 21.7614C44.4226 21.3239 44.353 20.9162 44.2138 20.5384C44.0746 20.1605 43.8601 19.8551 43.5703 19.6222C43.2805 19.3892 42.9112 19.2727 42.4624 19.2727C42.0135 19.2727 41.6442 19.3892 41.3544 19.6222C41.0646 19.8551 40.8501 20.1605 40.7109 20.5384C40.5717 20.9162 40.5021 21.3239 40.5021 21.7614C40.5021 22.1989 40.5717 22.6051 40.7109 22.9801C40.8501 23.3551 41.0646 23.6577 41.3544 23.8878C41.6442 24.1179 42.0135 24.233 42.4624 24.233ZM47.0998 25V16.2727H48.1055V19.4943H48.1907C48.2646 19.3807 48.3668 19.2358 48.4975 19.0597C48.631 18.8807 48.8214 18.7216 49.0685 18.5824C49.3185 18.4403 49.6566 18.3693 50.0827 18.3693C50.6339 18.3693 51.1197 18.5071 51.5401 18.7827C51.9606 19.0582 52.2887 19.4489 52.5245 19.9545C52.7603 20.4602 52.8782 21.0568 52.8782 21.7443C52.8782 22.4375 52.7603 23.0384 52.5245 23.5469C52.2887 24.0526 51.962 24.4446 51.5444 24.723C51.1268 24.9986 50.6452 25.1364 50.0998 25.1364C49.6793 25.1364 49.3427 25.0668 49.0898 24.9276C48.837 24.7855 48.6424 24.625 48.506 24.446C48.3697 24.2642 48.2646 24.1136 48.1907 23.9943H48.0714V25H47.0998ZM48.0884 21.7273C48.0884 22.2216 48.1609 22.6577 48.3058 23.0355C48.4506 23.4105 48.6623 23.7045 48.9407 23.9176C49.2191 24.1278 49.56 24.233 49.9634 24.233C50.3839 24.233 50.7347 24.1222 51.016 23.9006C51.3001 23.6761 51.5131 23.375 51.6552 22.9972C51.8001 22.6165 51.8725 22.1932 51.8725 21.7273C51.8725 21.267 51.8015 20.8523 51.6594 20.483C51.5202 20.1108 51.3086 19.8168 51.0245 19.6009C50.7433 19.3821 50.3896 19.2727 49.9634 19.2727C49.5543 19.2727 49.2106 19.3764 48.9322 19.5838C48.6538 19.7884 48.4435 20.0753 48.3015 20.4446C48.1594 20.8111 48.0884 21.2386 48.0884 21.7273ZM54.4165 25V18.4545H55.4222V25H54.4165ZM54.9279 17.3636C54.7319 17.3636 54.5629 17.2969 54.4208 17.1634C54.2816 17.0298 54.212 16.8693 54.212 16.6818C54.212 16.4943 54.2816 16.3338 54.4208 16.2003C54.5629 16.0668 54.7319 16 54.9279 16C55.1239 16 55.2915 16.0668 55.4308 16.2003C55.5728 16.3338 55.6438 16.4943 55.6438 16.6818C55.6438 16.8693 55.5728 17.0298 55.4308 17.1634C55.2915 17.2969 55.1239 17.3636 54.9279 17.3636ZM58.2699 16.2727V25H57.2642V16.2727H58.2699ZM60.1119 25V18.4545H61.1175V25H60.1119ZM60.6232 17.3636C60.4272 17.3636 60.2582 17.2969 60.1161 17.1634C59.9769 17.0298 59.9073 16.8693 59.9073 16.6818C59.9073 16.4943 59.9769 16.3338 60.1161 16.2003C60.2582 16.0668 60.4272 16 60.6232 16C60.8192 16 60.9869 16.0668 61.1261 16.2003C61.2681 16.3338 61.3391 16.4943 61.3391 16.6818C61.3391 16.8693 61.2681 17.0298 61.1261 17.1634C60.9869 17.2969 60.8192 17.3636 60.6232 17.3636ZM64.8857 25.1534C64.4709 25.1534 64.0945 25.0753 63.7564 24.919C63.4183 24.7599 63.1499 24.5312 62.951 24.233C62.7521 23.9318 62.6527 23.5682 62.6527 23.142C62.6527 22.767 62.7266 22.4631 62.8743 22.2301C63.022 21.9943 63.2195 21.8097 63.4666 21.6761C63.7138 21.5426 63.9865 21.4432 64.2848 21.3778C64.5859 21.3097 64.8885 21.2557 65.1925 21.2159C65.5902 21.1648 65.9126 21.1264 66.1598 21.1009C66.4098 21.0724 66.5916 21.0256 66.7053 20.9602C66.8217 20.8949 66.88 20.7812 66.88 20.6193V20.5852C66.88 20.1648 66.7649 19.8381 66.5348 19.6051C66.3075 19.3722 65.9624 19.2557 65.4993 19.2557C65.0192 19.2557 64.6428 19.3608 64.37 19.571C64.0973 19.7812 63.9055 20.0057 63.7947 20.2443L62.8402 19.9034C63.0107 19.5057 63.2379 19.196 63.522 18.9744C63.8089 18.75 64.1214 18.5937 64.4595 18.5057C64.8004 18.4148 65.1357 18.3693 65.4652 18.3693C65.6754 18.3693 65.9169 18.3949 66.1896 18.446C66.4652 18.4943 66.7308 18.5952 66.9865 18.7486C67.245 18.902 67.4595 19.1335 67.63 19.4432C67.8004 19.7528 67.8857 20.1676 67.8857 20.6875V25H66.88V24.1136H66.8288C66.7607 24.2557 66.647 24.4077 66.4879 24.5696C66.3288 24.7315 66.1172 24.8693 65.853 24.983C65.5888 25.0966 65.2663 25.1534 64.8857 25.1534ZM65.0391 24.25C65.4368 24.25 65.772 24.1719 66.0447 24.0156C66.3203 23.8594 66.5277 23.6577 66.6669 23.4105C66.8089 23.1634 66.88 22.9034 66.88 22.6307V21.7102C66.8374 21.7614 66.7436 21.8082 66.5987 21.8509C66.4567 21.8906 66.2919 21.9261 66.1044 21.9574C65.9197 21.9858 65.7393 22.0114 65.5632 22.0341C65.3899 22.054 65.2493 22.071 65.1413 22.0852C64.88 22.1193 64.6357 22.1747 64.4084 22.2514C64.1839 22.3253 64.0021 22.4375 63.8629 22.5881C63.7266 22.7358 63.6584 22.9375 63.6584 23.1932C63.6584 23.5426 63.7876 23.8068 64.0462 23.9858C64.3075 24.1619 64.6385 24.25 65.0391 24.25ZM65.0732 17.5682L66.1129 15.5909H67.2891L65.9595 17.5682H65.0732ZM69.7212 25V18.4545H70.6928V19.4432H70.761C70.8803 19.1193 71.0962 18.8565 71.4087 18.6548C71.7212 18.4531 72.0735 18.3523 72.4656 18.3523C72.5394 18.3523 72.6317 18.3537 72.7425 18.3565C72.8533 18.3594 72.9371 18.3636 72.994 18.3693V19.392C72.9599 19.3835 72.8817 19.3707 72.7596 19.3537C72.6403 19.3338 72.5138 19.3239 72.3803 19.3239C72.0621 19.3239 71.7781 19.3906 71.5281 19.5241C71.2809 19.6548 71.0849 19.8366 70.94 20.0696C70.7979 20.2997 70.7269 20.5625 70.7269 20.858V25H69.7212ZM74.1861 25V18.4545H75.1918V25H74.1861ZM74.6974 17.3636C74.5014 17.3636 74.3324 17.2969 74.1903 17.1634C74.0511 17.0298 73.9815 16.8693 73.9815 16.6818C73.9815 16.4943 74.0511 16.3338 74.1903 16.2003C74.3324 16.0668 74.5014 16 74.6974 16C74.8935 16 75.0611 16.0668 75.2003 16.2003C75.3423 16.3338 75.4134 16.4943 75.4134 16.6818C75.4134 16.8693 75.3423 17.0298 75.2003 17.1634C75.0611 17.2969 74.8935 17.3636 74.6974 17.3636ZM78.9599 25.1534C78.5451 25.1534 78.1687 25.0753 77.8306 24.919C77.4925 24.7599 77.2241 24.5312 77.0252 24.233C76.8263 23.9318 76.7269 23.5682 76.7269 23.142C76.7269 22.767 76.8008 22.4631 76.9485 22.2301C77.0962 21.9943 77.2937 21.8097 77.5408 21.6761C77.788 21.5426 78.0607 21.4432 78.359 21.3778C78.6602 21.3097 78.9627 21.2557 79.2667 21.2159C79.6644 21.1648 79.9869 21.1264 80.234 21.1009C80.484 21.0724 80.6658 21.0256 80.7795 20.9602C80.896 20.8949 80.9542 20.7812 80.9542 20.6193V20.5852C80.9542 20.1648 80.8391 19.8381 80.609 19.6051C80.3817 19.3722 80.0366 19.2557 79.5735 19.2557C79.0934 19.2557 78.717 19.3608 78.4442 19.571C78.1715 19.7812 77.9798 20.0057 77.869 20.2443L76.9144 19.9034C77.0849 19.5057 77.3121 19.196 77.5962 18.9744C77.8832 18.75 78.1957 18.5937 78.5337 18.5057C78.8746 18.4148 79.2099 18.3693 79.5394 18.3693C79.7496 18.3693 79.9911 18.3949 80.2638 18.446C80.5394 18.4943 80.805 18.5952 81.0607 18.7486C81.3192 18.902 81.5337 19.1335 81.7042 19.4432C81.8746 19.7528 81.9599 20.1676 81.9599 20.6875V25H80.9542V24.1136H80.9031C80.8349 24.2557 80.7212 24.4077 80.5621 24.5696C80.4031 24.7315 80.1914 24.8693 79.9272 24.983C79.663 25.0966 79.3406 25.1534 78.9599 25.1534ZM79.1133 24.25C79.511 24.25 79.8462 24.1719 80.119 24.0156C80.3945 23.8594 80.6019 23.6577 80.7411 23.4105C80.8832 23.1634 80.9542 22.9034 80.9542 22.6307V21.7102C80.9116 21.7614 80.8178 21.8082 80.6729 21.8509C80.5309 21.8906 80.3661 21.9261 80.1786 21.9574C79.994 21.9858 79.8136 22.0114 79.6374 22.0341C79.4641 22.054 79.3235 22.071 79.2156 22.0852C78.9542 22.1193 78.7099 22.1747 78.4826 22.2514C78.2582 22.3253 78.0763 22.4375 77.9371 22.5881C77.8008 22.7358 77.7326 22.9375 77.7326 23.1932C77.7326 23.5426 77.8619 23.8068 78.1204 23.9858C78.3817 24.1619 78.7127 24.25 79.1133 24.25ZM87.3068 25V16.2727H92.5398V17.2102H88.3636V20.1591H92.1477V21.0966H88.3636V25H87.3068ZM94.2134 25V18.4545H95.2191V25H94.2134ZM94.2646 17.5682L95.3043 15.5909H96.4805L95.1509 17.5682H94.2646ZM101.697 19.9205L100.794 20.1761C100.737 20.0256 100.653 19.8793 100.543 19.7372C100.435 19.5923 100.287 19.473 100.099 19.3793C99.9119 19.2855 99.6719 19.2386 99.3793 19.2386C98.9787 19.2386 98.6449 19.331 98.3778 19.5156C98.1136 19.6974 97.9815 19.929 97.9815 20.2102C97.9815 20.4602 98.0724 20.6577 98.2543 20.8026C98.4361 20.9474 98.7202 21.0682 99.1065 21.1648L100.078 21.4034C100.663 21.5455 101.099 21.7628 101.386 22.0554C101.673 22.3452 101.817 22.7187 101.817 23.1761C101.817 23.5511 101.709 23.8864 101.493 24.1818C101.28 24.4773 100.982 24.7102 100.598 24.8807C100.214 25.0511 99.7685 25.1364 99.2599 25.1364C98.5923 25.1364 98.0398 24.9915 97.6023 24.7017C97.1648 24.4119 96.8878 23.9886 96.7713 23.4318L97.7259 23.1932C97.8168 23.5455 97.9886 23.8097 98.2415 23.9858C98.4972 24.1619 98.831 24.25 99.2429 24.25C99.7116 24.25 100.084 24.1506 100.359 23.9517C100.638 23.75 100.777 23.5085 100.777 23.2273C100.777 23 100.697 22.8097 100.538 22.6562C100.379 22.5 100.135 22.3835 99.8054 22.3068L98.7145 22.0511C98.1151 21.9091 97.6747 21.6889 97.3935 21.3906C97.1151 21.0895 96.9759 20.7131 96.9759 20.2614C96.9759 19.892 97.0795 19.5653 97.2869 19.2812C97.4972 18.9972 97.7827 18.7741 98.1435 18.6122C98.5071 18.4503 98.919 18.3693 99.3793 18.3693C100.027 18.3693 100.536 18.5114 100.905 18.7955C101.277 19.0795 101.541 19.4545 101.697 19.9205ZM103.331 25V18.4545H104.336V25H103.331ZM103.842 17.3636C103.646 17.3636 103.477 17.2969 103.335 17.1634C103.196 17.0298 103.126 16.8693 103.126 16.6818C103.126 16.4943 103.196 16.3338 103.335 16.2003C103.477 16.0668 103.646 16 103.842 16C104.038 16 104.206 16.0668 104.345 16.2003C104.487 16.3338 104.558 16.4943 104.558 16.6818C104.558 16.8693 104.487 17.0298 104.345 17.1634C104.206 17.2969 104.038 17.3636 103.842 17.3636ZM108.837 25.1364C108.224 25.1364 107.695 24.9915 107.252 24.7017C106.809 24.4119 106.468 24.0128 106.229 23.5043C105.991 22.9957 105.871 22.4148 105.871 21.7614C105.871 21.0966 105.994 20.5099 106.238 20.0014C106.485 19.4901 106.829 19.0909 107.269 18.804C107.712 18.5142 108.229 18.3693 108.82 18.3693C109.281 18.3693 109.695 18.4545 110.065 18.625C110.434 18.7955 110.737 19.0341 110.972 19.3409C111.208 19.6477 111.354 20.0057 111.411 20.4148H110.406C110.329 20.1165 110.158 19.8523 109.894 19.6222C109.633 19.3892 109.281 19.2727 108.837 19.2727C108.445 19.2727 108.102 19.375 107.806 19.5795C107.513 19.7812 107.285 20.0668 107.12 20.4361C106.958 20.8026 106.877 21.233 106.877 21.7273C106.877 22.233 106.957 22.6733 107.116 23.0483C107.278 23.4233 107.505 23.7145 107.798 23.9219C108.093 24.1293 108.44 24.233 108.837 24.233C109.099 24.233 109.336 24.1875 109.549 24.0966C109.762 24.0057 109.942 23.875 110.09 23.7045C110.238 23.5341 110.343 23.3295 110.406 23.0909H111.411C111.354 23.4773 111.214 23.8253 110.989 24.1349C110.768 24.4418 110.474 24.6861 110.107 24.8679C109.744 25.0469 109.32 25.1364 108.837 25.1364ZM114.808 25.1534C114.393 25.1534 114.016 25.0753 113.678 24.919C113.34 24.7599 113.072 24.5312 112.873 24.233C112.674 23.9318 112.575 23.5682 112.575 23.142C112.575 22.767 112.648 22.4631 112.796 22.2301C112.944 21.9943 113.141 21.8097 113.388 21.6761C113.636 21.5426 113.908 21.4432 114.207 21.3778C114.508 21.3097 114.81 21.2557 115.114 21.2159C115.512 21.1648 115.835 21.1264 116.082 21.1009C116.332 21.0724 116.513 21.0256 116.627 20.9602C116.744 20.8949 116.802 20.7812 116.802 20.6193V20.5852C116.802 20.1648 116.687 19.8381 116.457 19.6051C116.229 19.3722 115.884 19.2557 115.421 19.2557C114.941 19.2557 114.565 19.3608 114.292 19.571C114.019 19.7812 113.827 20.0057 113.717 20.2443L112.762 19.9034C112.933 19.5057 113.16 19.196 113.444 18.9744C113.731 18.75 114.043 18.5937 114.381 18.5057C114.722 18.4148 115.058 18.3693 115.387 18.3693C115.597 18.3693 115.839 18.3949 116.112 18.446C116.387 18.4943 116.653 18.5952 116.908 18.7486C117.167 18.902 117.381 19.1335 117.552 19.4432C117.722 19.7528 117.808 20.1676 117.808 20.6875V25H116.802V24.1136H116.751C116.683 24.2557 116.569 24.4077 116.41 24.5696C116.251 24.7315 116.039 24.8693 115.775 24.983C115.511 25.0966 115.188 25.1534 114.808 25.1534ZM114.961 24.25C115.359 24.25 115.694 24.1719 115.967 24.0156C116.242 23.8594 116.45 23.6577 116.589 23.4105C116.731 23.1634 116.802 22.9034 116.802 22.6307V21.7102C116.759 21.7614 116.665 21.8082 116.521 21.8509C116.379 21.8906 116.214 21.9261 116.026 21.9574C115.842 21.9858 115.661 22.0114 115.485 22.0341C115.312 22.054 115.171 22.071 115.063 22.0852C114.802 22.1193 114.558 22.1747 114.33 22.2514C114.106 22.3253 113.924 22.4375 113.785 22.5881C113.648 22.7358 113.58 22.9375 113.58 23.1932C113.58 23.5426 113.71 23.8068 113.968 23.9858C114.229 24.1619 114.56 24.25 114.961 24.25Z" fill="#1B212D"/>
</svg>
