<svg width="20" height="21" viewBox="0 0 20 21" fill="none" xmlns="http://www.w3.org/2000/svg">
<path d="M9.11662 5.56667C9.40892 5.52186 9.70423 5.49957 9.99995 5.5C12.65 5.5 15.1416 7.40833 16.5916 10.5C16.3699 10.9705 16.1194 11.4269 15.8416 11.8667C15.7534 12.0032 15.7071 12.1625 15.7083 12.325C15.7101 12.5069 15.7714 12.6831 15.8828 12.8269C15.9942 12.9707 16.1496 13.074 16.3252 13.1213C16.5009 13.1685 16.6871 13.1569 16.8556 13.0884C17.0241 13.0199 17.1655 12.8981 17.2583 12.7417C17.6466 12.1316 17.9838 11.4905 18.2666 10.825C18.3113 10.721 18.3344 10.609 18.3344 10.4958C18.3344 10.3826 18.3113 10.2706 18.2666 10.1667C16.5833 6.25833 13.4166 3.83333 9.99995 3.83333C9.60884 3.83136 9.21835 3.86483 8.83328 3.93333C8.72385 3.95194 8.61915 3.99191 8.52516 4.05098C8.43118 4.11005 8.34975 4.18705 8.28552 4.27759C8.22129 4.36812 8.17553 4.47042 8.15084 4.57865C8.12615 4.68687 8.12301 4.7989 8.14162 4.90833C8.16022 5.01777 8.2002 5.12247 8.25926 5.21645C8.31833 5.31044 8.39533 5.39187 8.48587 5.4561C8.57641 5.52032 8.67871 5.56609 8.78693 5.59078C8.89515 5.61547 9.00718 5.6186 9.11662 5.6V5.56667ZM3.09162 2.40833C3.01392 2.33064 2.92168 2.269 2.82016 2.22695C2.71864 2.1849 2.60983 2.16326 2.49995 2.16326C2.39007 2.16326 2.28126 2.1849 2.17974 2.22695C2.07822 2.269 1.98598 2.33064 1.90828 2.40833C1.75136 2.56525 1.66321 2.77808 1.66321 3C1.66321 3.22192 1.75136 3.43475 1.90828 3.59167L4.49162 6.16667C3.31293 7.30127 2.37483 8.66166 1.73328 10.1667C1.6874 10.2718 1.66371 10.3853 1.66371 10.5C1.66371 10.6147 1.6874 10.7282 1.73328 10.8333C3.41662 14.7417 6.58328 17.1667 9.99995 17.1667C11.4975 17.1563 12.9598 16.7104 14.2083 15.8833L16.9083 18.5917C16.9858 18.6698 17.0779 18.7318 17.1795 18.7741C17.281 18.8164 17.3899 18.8382 17.5 18.8382C17.61 18.8382 17.7189 18.8164 17.8204 18.7741C17.922 18.7318 18.0141 18.6698 18.0916 18.5917C18.1697 18.5142 18.2317 18.422 18.274 18.3205C18.3163 18.2189 18.3381 18.11 18.3381 18C18.3381 17.89 18.3163 17.7811 18.274 17.6795C18.2317 17.578 18.1697 17.4858 18.0916 17.4083L3.09162 2.40833ZM8.39162 10.0667L10.4333 12.1083C10.2924 12.1487 10.1465 12.1684 9.99995 12.1667C9.55792 12.1667 9.134 11.9911 8.82144 11.6785C8.50888 11.366 8.33328 10.942 8.33328 10.5C8.33158 10.3535 8.35123 10.2075 8.39162 10.0667ZM9.99995 15.5C7.34995 15.5 4.85828 13.5917 3.41662 10.5C3.95502 9.31146 4.71918 8.23881 5.66662 7.34167L7.14162 8.83333C6.79516 9.46566 6.66307 10.1933 6.76517 10.907C6.86727 11.6208 7.19805 12.2822 7.70789 12.7921C8.21773 13.3019 8.87914 13.6327 9.5929 13.7348C10.3067 13.8369 11.0343 13.7048 11.6666 13.3583L12.9916 14.6667C12.0842 15.2007 11.0528 15.488 9.99995 15.5Z" fill="black"/>
</svg>
