<svg width="35" height="35" viewBox="0 0 35 35" fill="none" xmlns="http://www.w3.org/2000/svg">
<rect x="0.5" y="0.5" width="34" height="34" rx="3.5" fill="#FAFAFA" stroke="#F8F8F8"/>
<path opacity="0.5" d="M18 9.25C13.7188 9.25 10.25 12.7188 10.25 17C10.25 21.2812 13.7188 24.75 18 24.75C22.2812 24.75 25.75 21.2812 25.75 17C25.75 12.7188 22.2812 9.25 18 9.25ZM21.7812 19.0625C21.9375 19.1875 21.9375 19.4375 21.7812 19.5938L20.5625 20.8125C20.4062 20.9688 20.1562 20.9688 20.0312 20.8125L18 18.75L15.9375 20.8125C15.8125 20.9688 15.5625 20.9688 15.4062 20.8125L14.1875 19.5625C14.0312 19.4375 14.0312 19.1875 14.1875 19.0312L16.25 17L14.1875 14.9688C14.0312 14.8438 14.0312 14.5938 14.1875 14.4375L15.4375 13.2188C15.5625 13.0625 15.8125 13.0625 15.9688 13.2188L18 15.25L20.0312 13.2188C20.1562 13.0625 20.4062 13.0625 20.5625 13.2188L21.7812 14.4375C21.9375 14.5938 21.9375 14.8438 21.7812 14.9688L19.75 17L21.7812 19.0625Z" fill="#585656"/>
</svg>
