<svg width="168" height="64" viewBox="0 0 168 64" fill="none" xmlns="http://www.w3.org/2000/svg">
<g clip-path="url(#clip0_3_3781)">
<path d="M36.7902 50.5177C36.4321 49.5493 36.1608 48.5407 35.9828 47.4982C34.9615 47.2312 33.938 46.9663 32.9167 46.7014V42.5249C33.9401 42.2601 34.9615 41.9931 35.9828 41.7282C36.1608 40.6857 36.4321 39.677 36.7902 38.7087C36.0379 37.967 35.2857 37.2275 34.5356 36.4859C35.2306 35.2802 35.9277 34.0745 36.6249 32.8688C37.6441 33.1506 38.6633 33.4303 39.6826 33.7121C40.35 32.9112 41.0896 32.1716 41.8905 31.5042C41.6087 30.4849 41.329 29.4657 41.0472 28.4486C42.2529 27.7515 43.4586 27.0564 44.6643 26.3593C45.4059 27.1115 46.1454 27.8638 46.8871 28.6139C47.8554 28.2558 48.8641 27.9846 49.9066 27.8066C50.1715 26.7831 50.4385 25.7618 50.7033 24.7404H54.8798C55.1447 25.7639 55.4117 26.7852 55.6766 27.8066C56.7191 27.9846 57.7277 28.2558 58.6961 28.6139C58.73 28.5779 58.766 28.544 58.7999 28.5079V15.3258C58.7999 13.9358 57.662 12.8 56.2741 12.8H38.0679C38.195 13.0204 38.3222 13.2407 38.4493 13.459C37.9153 13.9866 37.3792 14.5121 36.8453 15.0398C37.0995 15.7284 37.2924 16.4468 37.4195 17.1863C38.1463 17.3749 38.8731 17.5635 39.5999 17.752V20.7228C38.8731 20.9114 38.1463 21.1 37.4195 21.2886C37.2924 22.0302 37.0995 22.7486 36.8453 23.4351C37.3792 23.9627 37.9153 24.4882 38.4493 25.0159C37.9556 25.8741 37.4598 26.7301 36.9639 27.5883C36.2392 27.3891 35.5145 27.1878 34.7899 26.9886C34.3152 27.5586 33.7897 28.0841 33.2197 28.5588C33.4189 29.2835 33.6202 30.0082 33.8194 30.7329C32.9612 31.2287 32.1051 31.7224 31.2469 32.2183C30.7193 31.6843 30.1938 31.1482 29.6662 30.6142C28.9775 30.8685 28.2592 31.0613 27.5197 31.1884C27.3311 31.9152 27.1425 32.6421 26.9539 33.3689C25.9643 33.3689 24.9727 33.3689 23.9831 33.3689C23.7945 32.6421 23.6059 31.9152 23.4173 31.1884C22.6757 31.0613 21.9574 30.8685 21.2708 30.6142C20.9805 30.9087 20.6923 31.2012 20.402 31.4957V48.6721C20.402 50.0621 21.5378 51.1979 22.9279 51.1979H36.1015C36.3325 50.9712 36.5613 50.7444 36.7923 50.5177H36.7902Z" fill="#4193C0"/>
<path d="M58.8 48.6742V33.7185C57.018 32.7332 54.971 32.1716 52.7906 32.1716C45.9188 32.1716 40.348 37.7424 40.348 44.6142C40.348 47.0341 41.0409 49.2908 42.236 51.2H56.2742C57.6643 51.2 58.8 50.0621 58.8 48.6742Z" fill="#4193C0"/>
<path d="M20.4 15.3258V26.4886C21.8367 27.4951 23.5827 28.0863 25.4686 28.0863C30.355 28.0863 34.3153 24.1259 34.3153 19.2396C34.3153 16.701 33.2452 14.4147 31.531 12.8H22.9258C21.5358 12.8 20.4 13.9379 20.4 15.3258Z" fill="#4193C0"/>
</g>
<path d="M73.712 43.5V18.6168H92.912V24.7992H81.008V27.8328H91.4144V33.9384H81.008V43.5H73.712ZM95.1995 43.5V18.6168H101.42L108.409 28.6776L115.398 18.6168H121.619V43.5H114.323V31.1352L108.409 39.4296L102.496 31.212V43.5H95.1995ZM124.915 40.9656L127.296 35.2824C128.141 35.7688 128.845 36.14 129.408 36.396C129.971 36.652 130.803 36.908 131.904 37.164C133.005 37.42 134.17 37.548 135.399 37.548C135.655 37.548 135.923 37.5352 136.205 37.5096C136.487 37.4584 136.807 37.3816 137.165 37.2792C137.523 37.1768 137.818 37.0232 138.048 36.8184C138.279 36.588 138.394 36.3192 138.394 36.012C138.394 35.8584 138.368 35.7176 138.317 35.5896C138.266 35.436 138.176 35.308 138.048 35.2056C137.92 35.1032 137.792 35.0136 137.664 34.9368C137.562 34.86 137.395 34.796 137.165 34.7448C136.935 34.668 136.755 34.6168 136.627 34.5912C136.499 34.54 136.282 34.4888 135.975 34.4376C135.693 34.3608 135.501 34.3096 135.399 34.284C134.298 34.028 133.325 33.772 132.48 33.516C131.661 33.26 130.791 32.9016 129.869 32.4408C128.973 31.98 128.218 31.468 127.603 30.9048C127.015 30.316 126.528 29.5864 126.144 28.716C125.76 27.82 125.568 26.8344 125.568 25.7592C125.568 23.3016 126.515 21.4328 128.41 20.1528C130.304 18.8728 132.634 18.2328 135.399 18.2328C138.957 18.2328 142.17 19.0776 145.037 20.7672L142.579 26.412C141.863 25.9256 140.787 25.5032 139.354 25.1448C137.946 24.7864 136.627 24.6072 135.399 24.6072C133.914 24.6072 133.171 24.9912 133.171 25.7592C133.171 26.4504 133.914 26.9752 135.399 27.3336C136.141 27.4872 136.73 27.628 137.165 27.756C137.626 27.8584 138.266 28.0376 139.085 28.2936C139.93 28.5496 140.621 28.8184 141.159 29.1C141.696 29.356 142.298 29.7144 142.963 30.1752C143.655 30.636 144.192 31.1352 144.576 31.6728C144.96 32.1848 145.293 32.8248 145.575 33.5928C145.856 34.3352 145.997 35.1416 145.997 36.012C145.997 37.804 145.459 39.3272 144.384 40.5816C143.309 41.8104 141.991 42.6808 140.429 43.1928C138.893 43.7048 137.216 43.9608 135.399 43.9608C133.786 43.9608 132.288 43.8072 130.906 43.5C129.523 43.2184 128.487 42.924 127.795 42.6168C127.13 42.284 126.49 41.9384 125.875 41.58C125.287 41.196 124.967 40.9912 124.915 40.9656Z" fill="#4193C0"/>
<defs>
<clipPath id="clip0_3_3781">
<rect width="38.4" height="38.4" fill="white" transform="translate(20.4 12.8)"/>
</clipPath>
</defs>
</svg>
