<svg width="35" height="35" viewBox="0 0 35 35" fill="none" xmlns="http://www.w3.org/2000/svg">
<rect x="0.5" y="0.5" width="34" height="34" rx="3.5" fill="#FAFAFA" stroke="#F8F8F8"/>
<path opacity="0.5" d="M11.5 13.125H24.5C24.75 13.125 25 12.9062 25 12.625V11.375C25 11.125 24.75 10.875 24.5 10.875H11.5C11.2188 10.875 11 11.125 11 11.375V12.625C11 12.9062 11.2188 13.125 11.5 13.125ZM11.5 18.125H24.5C24.75 18.125 25 17.9062 25 17.625V16.375C25 16.125 24.75 15.875 24.5 15.875H11.5C11.2188 15.875 11 16.125 11 16.375V17.625C11 17.9062 11.2188 18.125 11.5 18.125ZM11.5 23.125H24.5C24.75 23.125 25 22.9062 25 22.625V21.375C25 21.125 24.75 20.875 24.5 20.875H11.5C11.2188 20.875 11 21.125 11 21.375V22.625C11 22.9062 11.2188 23.125 11.5 23.125Z" fill="#585656"/>
</svg>
