<svg width="32" height="32" viewBox="0 0 32 32" fill="none" xmlns="http://www.w3.org/2000/svg">
<rect x="0.5" y="0.5" width="31" height="31" rx="3.5" fill="#FEFEFE" stroke="#F8F8F8"/>
<path d="M22.6667 15.3333C22.6685 14.8634 22.5462 14.4014 22.3121 13.994C22.0779 13.5866 21.7403 13.2483 21.3333 13.0133C21.3434 12.898 21.3434 12.782 21.3333 12.6667C21.3333 12.1362 21.1226 11.6275 20.7476 11.2525C20.3725 10.8774 19.8638 10.6667 19.3333 10.6667H19.2133C19.1023 10.3589 18.9175 10.083 18.675 9.8633C18.4326 9.64357 18.1399 9.48669 17.8227 9.4064C17.5055 9.32612 17.1735 9.32488 16.8557 9.4028C16.5379 9.48072 16.2441 9.63542 16 9.85333C15.7559 9.63542 15.4621 9.48072 15.1443 9.4028C14.8265 9.32488 14.4945 9.32612 14.1773 9.4064C13.8601 9.48669 13.5674 9.64357 13.325 9.8633C13.0825 10.083 12.8977 10.3589 12.7867 10.6667H12.6667C12.1362 10.6667 11.6275 10.8774 11.2525 11.2525C10.8774 11.6275 10.6667 12.1362 10.6667 12.6667C10.6566 12.782 10.6566 12.898 10.6667 13.0133C10.2883 13.2272 9.96796 13.5303 9.7335 13.8962C9.49904 14.2622 9.35758 14.6799 9.32143 15.113C9.28529 15.5461 9.35555 15.9815 9.5261 16.3813C9.69666 16.781 9.96234 17.133 10.3 17.4067C10.0815 17.8142 9.97275 18.2715 9.98437 18.7337C9.99599 19.196 10.1276 19.6472 10.3663 20.0433C10.605 20.4393 10.9425 20.7664 11.3458 20.9926C11.7491 21.2188 12.2043 21.3362 12.6667 21.3333H12.7867C12.8977 21.6411 13.0825 21.917 13.325 22.1367C13.5674 22.3564 13.8601 22.5133 14.1773 22.5936C14.4945 22.6739 14.8265 22.6751 15.1443 22.5972C15.4621 22.5193 15.7559 22.3646 16 22.1467C16.2441 22.3646 16.5379 22.5193 16.8557 22.5972C17.1735 22.6751 17.5055 22.6739 17.8227 22.5936C18.1399 22.5133 18.4326 22.3564 18.675 22.1367C18.9175 21.917 19.1023 21.6411 19.2133 21.3333H19.3333C19.7929 21.3304 20.2439 21.2088 20.6426 20.9803C21.0413 20.7517 21.3742 20.424 21.609 20.029C21.8437 19.6339 21.9724 19.1849 21.9825 18.7254C21.9926 18.266 21.8838 17.8117 21.6667 17.4067C21.9776 17.1577 22.2289 16.8422 22.4019 16.4835C22.575 16.1247 22.6654 15.7317 22.6667 15.3333ZM15.3333 13.7C15.1881 13.617 15.0366 13.5456 14.88 13.4867C14.712 13.4301 14.5285 13.4426 14.3697 13.5213C14.2109 13.6001 14.0899 13.7387 14.0333 13.9067C13.9768 14.0746 13.9892 14.2582 14.068 14.417C14.1468 14.5758 14.2854 14.6968 14.4533 14.7533C14.71 14.8461 14.932 15.0154 15.0893 15.2383C15.2467 15.4613 15.3319 15.7271 15.3333 16V17.0333C15.1881 16.9503 15.0366 16.8789 14.88 16.82C14.712 16.7634 14.5285 16.7759 14.3697 16.8546C14.2109 16.9334 14.0899 17.072 14.0333 17.24C13.9768 17.408 13.9892 17.5915 14.068 17.7503C14.1468 17.9091 14.2854 18.0301 14.4533 18.0867C14.71 18.1794 14.932 18.3487 15.0893 18.5717C15.2467 18.7946 15.3319 19.0605 15.3333 19.3333V20.6667C15.3333 20.8435 15.2631 21.013 15.1381 21.1381C15.0131 21.2631 14.8435 21.3333 14.6667 21.3333C14.5377 21.3325 14.4117 21.2943 14.3041 21.2233C14.1964 21.1523 14.1116 21.0515 14.06 20.9333C14.1718 20.8677 14.2787 20.7942 14.38 20.7133C14.4474 20.6573 14.5031 20.5885 14.544 20.511C14.5848 20.4334 14.61 20.3486 14.618 20.2613C14.6261 20.174 14.6168 20.086 14.5909 20.0023C14.5649 19.9185 14.5227 19.8407 14.4667 19.7733C14.4106 19.7059 14.3419 19.6502 14.2643 19.6094C14.1868 19.5685 14.1019 19.5434 14.0146 19.5353C13.9273 19.5273 13.8393 19.5365 13.7556 19.5625C13.6719 19.5884 13.5941 19.6306 13.5267 19.6867C13.286 19.8893 12.9813 20.0003 12.6667 20C12.3131 20 11.9739 19.8595 11.7239 19.6095C11.4738 19.3594 11.3333 19.0203 11.3333 18.6667C11.3365 18.4157 11.4105 18.1708 11.5467 17.96C11.6963 17.9868 11.848 18.0002 12 18C12.1768 18 12.3464 17.9298 12.4714 17.8047C12.5964 17.6797 12.6667 17.5101 12.6667 17.3333C12.6667 17.1565 12.5964 16.987 12.4714 16.8619C12.3464 16.7369 12.1768 16.6667 12 16.6667C11.8425 16.6676 11.6864 16.6381 11.54 16.58C11.3002 16.4935 11.0903 16.3401 10.935 16.138C10.7797 15.9359 10.6856 15.6935 10.6639 15.4395C10.6421 15.1856 10.6936 14.9307 10.8123 14.7051C10.9309 14.4795 11.1118 14.2926 11.3333 14.1667C11.4281 14.2538 11.5307 14.3319 11.64 14.4C11.7938 14.4884 11.9765 14.5121 12.1478 14.4658C12.319 14.4196 12.4649 14.3072 12.5533 14.1533C12.6417 13.9995 12.6654 13.8169 12.6192 13.6456C12.5729 13.4743 12.4605 13.3284 12.3067 13.24C12.2128 13.1882 12.1346 13.1123 12.08 13.02C12.0184 12.913 11.9905 12.7898 12 12.6667C12 12.4899 12.0702 12.3203 12.1953 12.1953C12.3203 12.0702 12.4899 12 12.6667 12C12.7131 11.9935 12.7602 11.9935 12.8067 12C12.842 12.1071 12.8843 12.2118 12.9333 12.3133C12.9769 12.3897 13.0351 12.4567 13.1047 12.5105C13.1743 12.5643 13.2538 12.6038 13.3387 12.6267C13.4236 12.6497 13.5122 12.6556 13.5993 12.6441C13.6865 12.6327 13.7706 12.6041 13.8467 12.56C13.9945 12.4711 14.1021 12.3283 14.1468 12.1617C14.1916 11.9951 14.17 11.8177 14.0867 11.6667C14.0307 11.5644 14.001 11.4499 14 11.3333C14 11.1565 14.0702 10.987 14.1953 10.8619C14.3203 10.7369 14.4899 10.6667 14.6667 10.6667C14.8435 10.6667 15.0131 10.7369 15.1381 10.8619C15.2631 10.987 15.3333 11.1565 15.3333 11.3333V13.7ZM20.46 16.58C20.3137 16.6381 20.1575 16.6676 20 16.6667C19.8232 16.6667 19.6536 16.7369 19.5286 16.8619C19.4036 16.987 19.3333 17.1565 19.3333 17.3333C19.3333 17.5101 19.4036 17.6797 19.5286 17.8047C19.6536 17.9298 19.8232 18 20 18C20.152 18.0002 20.3037 17.9868 20.4533 17.96C20.5895 18.1708 20.6635 18.4157 20.6667 18.6667C20.6667 19.0203 20.5262 19.3594 20.2762 19.6095C20.0261 19.8595 19.687 20 19.3333 20C19.0187 20.0003 18.7141 19.8893 18.4733 19.6867C18.3372 19.5735 18.1617 19.5191 17.9854 19.5353C17.8091 19.5516 17.6465 19.6372 17.5333 19.7733C17.4202 19.9095 17.3657 20.085 17.382 20.2613C17.3982 20.4376 17.4839 20.6002 17.62 20.7133C17.7213 20.7942 17.8282 20.8677 17.94 20.9333C17.8884 21.0515 17.8036 21.1523 17.696 21.2233C17.5883 21.2943 17.4623 21.3325 17.3333 21.3333C17.1565 21.3333 16.987 21.2631 16.8619 21.1381C16.7369 21.013 16.6667 20.8435 16.6667 20.6667V19.3333C16.6682 19.0605 16.7533 18.7946 16.9107 18.5717C17.0681 18.3487 17.29 18.1794 17.5467 18.0867C17.7146 18.0301 17.8533 17.9091 17.932 17.7503C18.0108 17.5915 18.0233 17.408 17.9667 17.24C17.9101 17.072 17.7891 16.9334 17.6303 16.8546C17.4715 16.7759 17.288 16.7634 17.12 16.82C16.9635 16.8789 16.8119 16.9503 16.6667 17.0333V16C16.6682 15.7271 16.7533 15.4613 16.9107 15.2383C17.0681 15.0154 17.29 14.8461 17.5467 14.7533C17.7146 14.6968 17.8533 14.5758 17.932 14.417C18.0108 14.2582 18.0233 14.0746 17.9667 13.9067C17.9101 13.7387 17.7891 13.6001 17.6303 13.5213C17.4715 13.4426 17.288 13.4301 17.12 13.4867C16.9635 13.5456 16.8119 13.617 16.6667 13.7V11.3333C16.6667 11.1565 16.7369 10.987 16.8619 10.8619C16.987 10.7369 17.1565 10.6667 17.3333 10.6667C17.5102 10.6667 17.6797 10.7369 17.8047 10.8619C17.9298 10.987 18 11.1565 18 11.3333C17.9991 11.4499 17.9693 11.5644 17.9133 11.6667C17.869 11.7424 17.84 11.8261 17.8281 11.913C17.8161 11.9999 17.8215 12.0883 17.8438 12.1732C17.866 12.258 17.9049 12.3376 17.958 12.4074C18.0111 12.4772 18.0775 12.5359 18.1533 12.58C18.2294 12.6241 18.3135 12.6527 18.4007 12.6641C18.4879 12.6756 18.5765 12.6697 18.6613 12.6467C18.7462 12.6238 18.8258 12.5843 18.8953 12.5305C18.9649 12.4767 19.0231 12.4097 19.0667 12.3333C19.1166 12.2253 19.1589 12.1139 19.1933 12C19.2398 11.9935 19.2869 11.9935 19.3333 12C19.5102 12 19.6797 12.0702 19.8047 12.1953C19.9298 12.3203 20 12.4899 20 12.6667C19.999 12.7974 19.9596 12.9249 19.8867 13.0333C19.8322 13.1198 19.7564 13.191 19.6667 13.24C19.5129 13.3284 19.4004 13.4743 19.3542 13.6456C19.3079 13.8169 19.3316 13.9995 19.42 14.1533C19.5084 14.3072 19.6543 14.4196 19.8256 14.4658C19.9969 14.5121 20.1795 14.4884 20.3333 14.4C20.453 14.3353 20.5649 14.257 20.6667 14.1667C20.889 14.2904 21.0713 14.4752 21.192 14.6992C21.3127 14.9232 21.3668 15.1771 21.3478 15.4309C21.3289 15.6846 21.2378 15.9276 21.0852 16.1313C20.9326 16.3349 20.7249 16.4906 20.4867 16.58H20.46Z" fill="#6E778B"/>
</svg>
