<svg width="32" height="32" viewBox="0 0 32 32" fill="none" xmlns="http://www.w3.org/2000/svg">
<rect x="0.5" y="0.5" width="31" height="31" rx="3.5" fill="#FEFEFE" stroke="#F8F8F8"/>
<path d="M12.0001 15.3333C11.8682 15.3333 11.7393 15.3724 11.6297 15.4457C11.5201 15.5189 11.4346 15.6231 11.3842 15.7449C11.3337 15.8667 11.3205 16.0007 11.3462 16.1301C11.3719 16.2594 11.4354 16.3782 11.5287 16.4714C11.6219 16.5646 11.7407 16.6281 11.87 16.6539C11.9993 16.6796 12.1334 16.6664 12.2552 16.6159C12.377 16.5655 12.4811 16.48 12.5544 16.3704C12.6276 16.2608 12.6667 16.1319 12.6667 16C12.6667 15.8232 12.5965 15.6536 12.4715 15.5286C12.3465 15.4036 12.1769 15.3333 12.0001 15.3333ZM20.0001 15.3333C19.8682 15.3333 19.7393 15.3724 19.6297 15.4457C19.5201 15.5189 19.4346 15.6231 19.3842 15.7449C19.3337 15.8667 19.3205 16.0007 19.3462 16.1301C19.3719 16.2594 19.4354 16.3782 19.5287 16.4714C19.6219 16.5646 19.7407 16.6281 19.87 16.6539C19.9993 16.6796 20.1334 16.6664 20.2552 16.6159C20.377 16.5655 20.4811 16.48 20.5544 16.3704C20.6276 16.2608 20.6667 16.1319 20.6667 16C20.6667 15.8232 20.5965 15.6536 20.4715 15.5286C20.3465 15.4036 20.1769 15.3333 20.0001 15.3333ZM21.3334 11.3333H10.6667C10.1363 11.3333 9.62761 11.544 9.25253 11.9191C8.87746 12.2942 8.66675 12.8029 8.66675 13.3333V18.6667C8.66675 19.1971 8.87746 19.7058 9.25253 20.0809C9.62761 20.456 10.1363 20.6667 10.6667 20.6667H21.3334C21.8638 20.6667 22.3726 20.456 22.7476 20.0809C23.1227 19.7058 23.3334 19.1971 23.3334 18.6667V13.3333C23.3334 12.8029 23.1227 12.2942 22.7476 11.9191C22.3726 11.544 21.8638 11.3333 21.3334 11.3333ZM22.0001 18.6667C22.0001 18.8435 21.9298 19.0131 21.8048 19.1381C21.6798 19.2631 21.5102 19.3333 21.3334 19.3333H10.6667C10.4899 19.3333 10.3204 19.2631 10.1953 19.1381C10.0703 19.0131 10.0001 18.8435 10.0001 18.6667V13.3333C10.0001 13.1565 10.0703 12.987 10.1953 12.8619C10.3204 12.7369 10.4899 12.6667 10.6667 12.6667H21.3334C21.5102 12.6667 21.6798 12.7369 21.8048 12.8619C21.9298 12.987 22.0001 13.1565 22.0001 13.3333V18.6667ZM16.0001 14C15.6045 14 15.2178 14.1173 14.8889 14.3371C14.56 14.5568 14.3037 14.8692 14.1523 15.2346C14.0009 15.6001 13.9613 16.0022 14.0385 16.3902C14.1157 16.7781 14.3062 17.1345 14.5859 17.4142C14.8656 17.6939 15.2219 17.8844 15.6099 17.9616C15.9979 18.0387 16.4 17.9991 16.7654 17.8478C17.1309 17.6964 17.4433 17.44 17.663 17.1111C17.8828 16.7822 18.0001 16.3956 18.0001 16C18.0001 15.4696 17.7894 14.9609 17.4143 14.5858C17.0392 14.2107 16.5305 14 16.0001 14ZM16.0001 16.6667C15.8682 16.6667 15.7393 16.6276 15.6297 16.5543C15.5201 16.4811 15.4346 16.3769 15.3842 16.2551C15.3337 16.1333 15.3205 15.9993 15.3462 15.8699C15.3719 15.7406 15.4354 15.6218 15.5287 15.5286C15.6219 15.4354 15.7407 15.3719 15.87 15.3461C15.9993 15.3204 16.1334 15.3336 16.2552 15.3841C16.377 15.4345 16.4811 15.52 16.5544 15.6296C16.6276 15.7393 16.6667 15.8681 16.6667 16C16.6667 16.1768 16.5965 16.3464 16.4715 16.4714C16.3465 16.5964 16.1769 16.6667 16.0001 16.6667Z" fill="#6E778B"/>
</svg>
