<svg width="32" height="32" viewBox="0 0 32 32" fill="none" xmlns="http://www.w3.org/2000/svg">
<rect x="0.5" y="0.5" width="31" height="31" rx="3.5" fill="#4056B7" stroke="#FEFEFE"/>
<path d="M11.9998 15.3333C11.868 15.3333 11.7391 15.3724 11.6295 15.4457C11.5198 15.5189 11.4344 15.6231 11.3839 15.7449C11.3335 15.8667 11.3203 16.0007 11.346 16.1301C11.3717 16.2594 11.4352 16.3782 11.5284 16.4714C11.6217 16.5646 11.7405 16.6281 11.8698 16.6539C11.9991 16.6796 12.1331 16.6664 12.255 16.6159C12.3768 16.5655 12.4809 16.48 12.5542 16.3704C12.6274 16.2608 12.6665 16.1319 12.6665 16C12.6665 15.8232 12.5963 15.6536 12.4712 15.5286C12.3462 15.4036 12.1766 15.3333 11.9998 15.3333ZM19.9998 15.3333C19.868 15.3333 19.7391 15.3724 19.6295 15.4457C19.5198 15.5189 19.4344 15.6231 19.3839 15.7449C19.3335 15.8667 19.3203 16.0007 19.346 16.1301C19.3717 16.2594 19.4352 16.3782 19.5284 16.4714C19.6217 16.5646 19.7405 16.6281 19.8698 16.6539C19.9991 16.6796 20.1331 16.6664 20.255 16.6159C20.3768 16.5655 20.4809 16.48 20.5542 16.3704C20.6274 16.2608 20.6665 16.1319 20.6665 16C20.6665 15.8232 20.5963 15.6536 20.4712 15.5286C20.3462 15.4036 20.1766 15.3333 19.9998 15.3333ZM21.3332 11.3333H10.6665C10.1361 11.3333 9.62736 11.544 9.25229 11.9191C8.87722 12.2942 8.6665 12.8029 8.6665 13.3333V18.6667C8.6665 19.1971 8.87722 19.7058 9.25229 20.0809C9.62736 20.456 10.1361 20.6667 10.6665 20.6667H21.3332C21.8636 20.6667 22.3723 20.456 22.7474 20.0809C23.1225 19.7058 23.3332 19.1971 23.3332 18.6667V13.3333C23.3332 12.8029 23.1225 12.2942 22.7474 11.9191C22.3723 11.544 21.8636 11.3333 21.3332 11.3333ZM21.9998 18.6667C21.9998 18.8435 21.9296 19.0131 21.8046 19.1381C21.6796 19.2631 21.51 19.3333 21.3332 19.3333H10.6665C10.4897 19.3333 10.3201 19.2631 10.1951 19.1381C10.0701 19.0131 9.99984 18.8435 9.99984 18.6667V13.3333C9.99984 13.1565 10.0701 12.987 10.1951 12.8619C10.3201 12.7369 10.4897 12.6667 10.6665 12.6667H21.3332C21.51 12.6667 21.6796 12.7369 21.8046 12.8619C21.9296 12.987 21.9998 13.1565 21.9998 13.3333V18.6667ZM15.9998 14C15.6043 14 15.2176 14.1173 14.8887 14.3371C14.5598 14.5568 14.3035 14.8692 14.1521 15.2346C14.0007 15.6001 13.9611 16.0022 14.0383 16.3902C14.1154 16.7781 14.3059 17.1345 14.5856 17.4142C14.8653 17.6939 15.2217 17.8844 15.6097 17.9616C15.9976 18.0387 16.3998 17.9991 16.7652 17.8478C17.1307 17.6964 17.443 17.44 17.6628 17.1111C17.8825 16.7822 17.9998 16.3956 17.9998 16C17.9998 15.4696 17.7891 14.9609 17.4141 14.5858C17.039 14.2107 16.5303 14 15.9998 14ZM15.9998 16.6667C15.868 16.6667 15.7391 16.6276 15.6295 16.5543C15.5198 16.4811 15.4344 16.3769 15.3839 16.2551C15.3335 16.1333 15.3203 15.9993 15.346 15.8699C15.3717 15.7406 15.4352 15.6218 15.5284 15.5286C15.6217 15.4354 15.7405 15.3719 15.8698 15.3461C15.9991 15.3204 16.1331 15.3336 16.255 15.3841C16.3768 15.4345 16.4809 15.52 16.5541 15.6296C16.6274 15.7393 16.6665 15.8681 16.6665 16C16.6665 16.1768 16.5963 16.3464 16.4712 16.4714C16.3462 16.5964 16.1766 16.6667 15.9998 16.6667Z" fill="#FEFEFE"/>
</svg>
