<svg width="32" height="32" viewBox="0 0 32 32" fill="none" xmlns="http://www.w3.org/2000/svg">
<rect x="0.5" y="0.5" width="31" height="31" rx="3.5" fill="#FEFEFE" stroke="#F8F8F8"/>
<path d="M20 14.6667C20 14.4899 19.9298 14.3203 19.8047 14.1953C19.6797 14.0702 19.5101 14 19.3333 14H11.6067L13.14 12.4733C13.2655 12.3478 13.3361 12.1775 13.3361 12C13.3361 11.8225 13.2655 11.6522 13.14 11.5267C13.0145 11.4011 12.8442 11.3306 12.6667 11.3306C12.4891 11.3306 12.3189 11.4011 12.1933 11.5267L9.52666 14.1933C9.43415 14.2871 9.37149 14.4061 9.34657 14.5355C9.32166 14.6648 9.3356 14.7986 9.38666 14.92C9.43667 15.0418 9.5216 15.146 9.63075 15.2195C9.7399 15.2931 9.86837 15.3327 9.99999 15.3333H19.3333C19.5101 15.3333 19.6797 15.2631 19.8047 15.1381C19.9298 15.0131 20 14.8435 20 14.6667ZM22.6133 17.08C22.5633 16.9583 22.4784 16.854 22.3692 16.7805C22.2601 16.7069 22.1316 16.6673 22 16.6667H12.6667C12.4898 16.6667 12.3203 16.7369 12.1953 16.8619C12.0702 16.987 12 17.1565 12 17.3333C12 17.5102 12.0702 17.6797 12.1953 17.8047C12.3203 17.9298 12.4898 18 12.6667 18H20.3933L18.86 19.5267C18.7975 19.5886 18.7479 19.6624 18.7141 19.7436C18.6802 19.8249 18.6628 19.912 18.6628 20C18.6628 20.088 18.6802 20.1752 18.7141 20.2564C18.7479 20.3376 18.7975 20.4114 18.86 20.4733C18.922 20.5358 18.9957 20.5854 19.0769 20.6193C19.1582 20.6531 19.2453 20.6705 19.3333 20.6705C19.4213 20.6705 19.5085 20.6531 19.5897 20.6193C19.6709 20.5854 19.7447 20.5358 19.8067 20.4733L22.4733 17.8067C22.5658 17.7129 22.6285 17.5939 22.6534 17.4645C22.6783 17.3352 22.6644 17.2014 22.6133 17.08Z" fill="#6E778B"/>
</svg>
