<svg width="32" height="32" viewBox="0 0 32 32" fill="none" xmlns="http://www.w3.org/2000/svg">
<rect x="0.5" y="0.5" width="31" height="31" rx="3.5" fill="#4056B7" stroke="#FEFEFE"/>
<path d="M20.6668 13.3333H20.0002V11.3333C20.0002 10.8029 19.7894 10.2942 19.4144 9.91911C19.0393 9.54404 18.5306 9.33333 18.0002 9.33333H11.3335C10.8031 9.33333 10.2944 9.54404 9.91928 9.91911C9.54421 10.2942 9.3335 10.8029 9.3335 11.3333V19.3333C9.33415 19.4649 9.37375 19.5934 9.44731 19.7026C9.52087 19.8117 9.62508 19.8966 9.74683 19.9467C9.82595 19.984 9.91271 20.0022 10.0002 20C10.0879 20.0005 10.1749 19.9837 10.2561 19.9505C10.3373 19.9173 10.4112 19.8684 10.4735 19.8067L12.3468 17.9267H13.3335V18.8867C13.3335 19.4171 13.5442 19.9258 13.9193 20.3009C14.2944 20.6759 14.8031 20.8867 15.3335 20.8867H19.9468L21.5268 22.4733C21.5891 22.5351 21.663 22.584 21.7442 22.6172C21.8254 22.6504 21.9124 22.6672 22.0002 22.6667C22.0876 22.6689 22.1744 22.6507 22.2535 22.6133C22.3752 22.5633 22.4795 22.4784 22.553 22.3692C22.6266 22.2601 22.6662 22.1316 22.6668 22V15.3333C22.6668 14.8029 22.4561 14.2942 22.081 13.9191C21.706 13.544 21.1973 13.3333 20.6668 13.3333ZM13.3335 15.3333V16.5933H12.0735C11.9858 16.5928 11.8988 16.6096 11.8176 16.6428C11.7363 16.676 11.6625 16.7249 11.6002 16.7867L10.6668 17.7267V11.3333C10.6668 11.1565 10.7371 10.9869 10.8621 10.8619C10.9871 10.7369 11.1567 10.6667 11.3335 10.6667H18.0002C18.177 10.6667 18.3465 10.7369 18.4716 10.8619C18.5966 10.9869 18.6668 11.1565 18.6668 11.3333V13.3333H15.3335C14.8031 13.3333 14.2944 13.544 13.9193 13.9191C13.5442 14.2942 13.3335 14.8029 13.3335 15.3333ZM21.3335 20.3933L20.6668 19.7267C20.6051 19.6637 20.5315 19.6136 20.4502 19.5792C20.369 19.5449 20.2817 19.527 20.1935 19.5267H15.3335C15.1567 19.5267 14.9871 19.4564 14.8621 19.3314C14.7371 19.2064 14.6668 19.0368 14.6668 18.86V15.3333C14.6668 15.1565 14.7371 14.9869 14.8621 14.8619C14.9871 14.7369 15.1567 14.6667 15.3335 14.6667H20.6668C20.8436 14.6667 21.0132 14.7369 21.1382 14.8619C21.2633 14.9869 21.3335 15.1565 21.3335 15.3333V20.3933Z" fill="#FEFEFE"/>
</svg>
