<svg width="32" height="32" viewBox="0 0 32 32" fill="none" xmlns="http://www.w3.org/2000/svg">
<rect x="0.5" y="0.5" width="31" height="31" rx="3.5" fill="#FEFEFE" stroke="#F8F8F8"/>
<path d="M14.6666 22H13.3333C13.1565 22 12.9869 22.0702 12.8619 22.1953C12.7369 22.3203 12.6666 22.4899 12.6666 22.6667C12.6666 22.8435 12.7369 23.0131 12.8619 23.1381C12.9869 23.2631 13.1565 23.3333 13.3333 23.3333H14.6666C14.8435 23.3333 15.013 23.2631 15.1381 23.1381C15.2631 23.0131 15.3333 22.8435 15.3333 22.6667C15.3333 22.4899 15.2631 22.3203 15.1381 22.1953C15.013 22.0702 14.8435 22 14.6666 22ZM15.3333 19.3333H12C11.8232 19.3333 11.6536 19.4036 11.5286 19.5286C11.4036 19.6536 11.3333 19.8232 11.3333 20C11.3333 20.1768 11.4036 20.3464 11.5286 20.4714C11.6536 20.5964 11.8232 20.6667 12 20.6667H15.3333C15.5101 20.6667 15.6797 20.5964 15.8047 20.4714C15.9297 20.3464 16 20.1768 16 20C16 19.8232 15.9297 19.6536 15.8047 19.5286C15.6797 19.4036 15.5101 19.3333 15.3333 19.3333ZM20 9.33334C20 9.15653 19.9297 8.98696 19.8047 8.86193C19.6797 8.73691 19.5101 8.66667 19.3333 8.66667H9.99998C9.82317 8.66667 9.6536 8.73691 9.52858 8.86193C9.40355 8.98696 9.33331 9.15653 9.33331 9.33334C9.33331 9.51015 9.40355 9.67972 9.52858 9.80474C9.6536 9.92977 9.82317 10 9.99998 10H19.3333C19.5101 10 19.6797 9.92977 19.8047 9.80474C19.9297 9.67972 20 9.51015 20 9.33334ZM22 11.3333H12C11.8232 11.3333 11.6536 11.4036 11.5286 11.5286C11.4036 11.6536 11.3333 11.8232 11.3333 12C11.3333 12.1768 11.4036 12.3464 11.5286 12.4714C11.6536 12.5964 11.8232 12.6667 12 12.6667H22C22.1768 12.6667 22.3464 12.5964 22.4714 12.4714C22.5964 12.3464 22.6666 12.1768 22.6666 12C22.6666 11.8232 22.5964 11.6536 22.4714 11.5286C22.3464 11.4036 22.1768 11.3333 22 11.3333ZM20.6666 14H14.6666C14.4898 14 14.3203 14.0702 14.1952 14.1953C14.0702 14.3203 14 14.4899 14 14.6667C14 14.8435 14.0702 15.0131 14.1952 15.1381C14.3203 15.2631 14.4898 15.3333 14.6666 15.3333H20.6666C20.8435 15.3333 21.013 15.2631 21.1381 15.1381C21.2631 15.0131 21.3333 14.8435 21.3333 14.6667C21.3333 14.4899 21.2631 14.3203 21.1381 14.1953C21.013 14.0702 20.8435 14 20.6666 14ZM17.3333 16.6667H13.3333C13.1565 16.6667 12.9869 16.7369 12.8619 16.8619C12.7369 16.987 12.6666 17.1565 12.6666 17.3333C12.6666 17.5101 12.7369 17.6797 12.8619 17.8047C12.9869 17.9298 13.1565 18 13.3333 18H17.3333C17.5101 18 17.6797 17.9298 17.8047 17.8047C17.9297 17.6797 18 17.5101 18 17.3333C18 17.1565 17.9297 16.987 17.8047 16.8619C17.6797 16.7369 17.5101 16.6667 17.3333 16.6667Z" fill="#6E778B"/>
</svg>
