<svg width="33" height="32" viewBox="0 0 33 32" fill="none" xmlns="http://www.w3.org/2000/svg">
<rect x="0.5" width="32" height="32" rx="4" fill="#FEFEFE"/>
<path d="M23.1666 15.3333C23.1685 14.8635 23.0461 14.4014 22.812 13.994C22.5779 13.5866 22.2402 13.2483 21.8333 13.0133C21.8433 12.898 21.8433 12.782 21.8333 12.6667C21.8333 12.1363 21.6226 11.6275 21.2475 11.2525C20.8724 10.8774 20.3637 10.6667 19.8333 10.6667H19.7133C19.6023 10.3589 19.4174 10.083 19.175 9.86331C18.9325 9.64359 18.6399 9.48671 18.3227 9.40642C18.0055 9.32613 17.6734 9.3249 17.3556 9.40282C17.0378 9.48074 16.744 9.63544 16.4999 9.85335C16.2559 9.63544 15.9621 9.48074 15.6443 9.40282C15.3265 9.3249 14.9944 9.32613 14.6772 9.40642C14.36 9.48671 14.0674 9.64359 13.8249 9.86331C13.5825 10.083 13.3976 10.3589 13.2866 10.6667H13.1666C12.6362 10.6667 12.1275 10.8774 11.7524 11.2525C11.3773 11.6275 11.1666 12.1363 11.1666 12.6667C11.1566 12.782 11.1566 12.898 11.1666 13.0133C10.7883 13.2272 10.4679 13.5303 10.2334 13.8963C9.99898 14.2622 9.85752 14.6799 9.82137 15.113C9.78523 15.5462 9.85549 15.9815 10.026 16.3813C10.1966 16.7811 10.4623 17.1331 10.7999 17.4067C10.5815 17.8142 10.4727 18.2715 10.4843 18.7338C10.4959 19.196 10.6275 19.6473 10.8662 20.0433C11.1049 20.4393 11.4425 20.7664 11.8458 20.9926C12.2491 21.2188 12.7042 21.3362 13.1666 21.3334H13.2866C13.3976 21.6411 13.5825 21.917 13.8249 22.1367C14.0674 22.3564 14.36 22.5133 14.6772 22.5936C14.9944 22.6739 15.3265 22.6751 15.6443 22.5972C15.9621 22.5193 16.2559 22.3646 16.4999 22.1467C16.744 22.3646 17.0378 22.5193 17.3556 22.5972C17.6734 22.6751 18.0055 22.6739 18.3227 22.5936C18.6399 22.5133 18.9325 22.3564 19.175 22.1367C19.4174 21.917 19.6023 21.6411 19.7133 21.3334H19.8333C20.2928 21.3304 20.7438 21.2088 21.1425 20.9803C21.5413 20.7518 21.8741 20.4241 22.1089 20.029C22.3437 19.6339 22.4723 19.1849 22.4824 18.7254C22.4926 18.266 22.3838 17.8117 22.1666 17.4067C22.4776 17.1577 22.7288 16.8423 22.9018 16.4835C23.0749 16.1247 23.1654 15.7317 23.1666 15.3333ZM15.8333 13.7C15.6881 13.617 15.5365 13.5456 15.3799 13.4867C15.212 13.4301 15.0284 13.4426 14.8696 13.5213C14.7108 13.6001 14.5899 13.7387 14.5333 13.9067C14.4767 14.0747 14.4892 14.2582 14.5679 14.417C14.6467 14.5758 14.7853 14.6968 14.9533 14.7533C15.2099 14.8461 15.4319 15.0154 15.5893 15.2383C15.7466 15.4613 15.8318 15.7271 15.8333 16V17.0333C15.6881 16.9503 15.5365 16.879 15.3799 16.82C15.212 16.7634 15.0284 16.7759 14.8696 16.8547C14.7108 16.9334 14.5899 17.072 14.5333 17.24C14.4767 17.408 14.4892 17.5916 14.5679 17.7503C14.6467 17.9091 14.7853 18.0301 14.9533 18.0867C15.2099 18.1795 15.4319 18.3487 15.5893 18.5717C15.7466 18.7946 15.8318 19.0605 15.8333 19.3333V20.6667C15.8333 20.8435 15.763 21.0131 15.638 21.1381C15.513 21.2631 15.3434 21.3334 15.1666 21.3334C15.0376 21.3325 14.9117 21.2943 14.804 21.2233C14.6963 21.1523 14.6115 21.0516 14.5599 20.9333C14.6717 20.8678 14.7787 20.7942 14.8799 20.7134C14.9474 20.6573 15.0031 20.5886 15.0439 20.511C15.0848 20.4334 15.1099 20.3486 15.118 20.2613C15.126 20.174 15.1168 20.086 15.0908 20.0023C15.0649 19.9185 15.0226 19.8408 14.9666 19.7733C14.9106 19.7059 14.8418 19.6502 14.7643 19.6094C14.6867 19.5685 14.6019 19.5434 14.5146 19.5353C14.4273 19.5273 14.3393 19.5365 14.2555 19.5625C14.1718 19.5884 14.094 19.6307 14.0266 19.6867C13.7859 19.8893 13.4813 20.0003 13.1666 20C12.813 20 12.4739 19.8595 12.2238 19.6095C11.9738 19.3594 11.8333 19.0203 11.8333 18.6667C11.8365 18.4157 11.9104 18.1708 12.0466 17.96C12.1962 17.9869 12.3479 18.0002 12.4999 18C12.6768 18 12.8463 17.9298 12.9714 17.8048C13.0964 17.6797 13.1666 17.5102 13.1666 17.3333C13.1666 17.1565 13.0964 16.987 12.9714 16.8619C12.8463 16.7369 12.6768 16.6667 12.4999 16.6667C12.3425 16.6676 12.1863 16.6382 12.0399 16.58C11.8002 16.4935 11.5902 16.3402 11.4349 16.138C11.2797 15.9359 11.1856 15.6935 11.1638 15.4395C11.1421 15.1856 11.1936 14.9307 11.3122 14.7051C11.4309 14.4795 11.6117 14.2927 11.8333 14.1667C11.928 14.2538 12.0307 14.332 12.1399 14.4C12.2938 14.4884 12.4764 14.5121 12.6477 14.4658C12.819 14.4196 12.9649 14.3072 13.0533 14.1533C13.1417 13.9995 13.1654 13.8169 13.1191 13.6456C13.0728 13.4743 12.9604 13.3284 12.8066 13.24C12.7128 13.1882 12.6345 13.1123 12.5799 13.02C12.5183 12.913 12.4904 12.7898 12.4999 12.6667C12.4999 12.4899 12.5702 12.3203 12.6952 12.1953C12.8202 12.0703 12.9898 12 13.1666 12C13.2131 11.9935 13.2602 11.9935 13.3066 12C13.3419 12.1071 13.3842 12.2118 13.4333 12.3133C13.4768 12.3897 13.5351 12.4568 13.6046 12.5106C13.6742 12.5643 13.7537 12.6038 13.8386 12.6268C13.9235 12.6497 14.0121 12.6556 14.0993 12.6441C14.1865 12.6327 14.2705 12.6041 14.3466 12.56C14.4944 12.4711 14.602 12.3283 14.6468 12.1617C14.6915 11.9952 14.67 11.8177 14.5866 11.6667C14.5307 11.5644 14.5009 11.4499 14.4999 11.3333C14.4999 11.1565 14.5702 10.987 14.6952 10.8619C14.8202 10.7369 14.9898 10.6667 15.1666 10.6667C15.3434 10.6667 15.513 10.7369 15.638 10.8619C15.763 10.987 15.8333 11.1565 15.8333 11.3333V13.7ZM20.9599 16.58C20.8136 16.6382 20.6574 16.6676 20.4999 16.6667C20.3231 16.6667 20.1536 16.7369 20.0285 16.8619C19.9035 16.987 19.8333 17.1565 19.8333 17.3333C19.8333 17.5102 19.9035 17.6797 20.0285 17.8048C20.1536 17.9298 20.3231 18 20.4999 18C20.652 18.0002 20.8037 17.9869 20.9533 17.96C21.0895 18.1708 21.1634 18.4157 21.1666 18.6667C21.1666 19.0203 21.0261 19.3594 20.7761 19.6095C20.526 19.8595 20.1869 20 19.8333 20C19.5186 20.0003 19.214 19.8893 18.9733 19.6867C18.8371 19.5735 18.6616 19.5191 18.4853 19.5353C18.309 19.5516 18.1464 19.6372 18.0333 19.7733C17.9201 19.9095 17.8657 20.085 17.8819 20.2613C17.8982 20.4376 17.9838 20.6002 18.1199 20.7134C18.2212 20.7942 18.3282 20.8678 18.4399 20.9333C18.3884 21.0516 18.3036 21.1523 18.1959 21.2233C18.0882 21.2943 17.9623 21.3325 17.8333 21.3334C17.6565 21.3334 17.4869 21.2631 17.3619 21.1381C17.2369 21.0131 17.1666 20.8435 17.1666 20.6667V19.3333C17.1681 19.0605 17.2533 18.7946 17.4106 18.5717C17.568 18.3487 17.79 18.1795 18.0466 18.0867C18.2146 18.0301 18.3532 17.9091 18.432 17.7503C18.5107 17.5916 18.5232 17.408 18.4666 17.24C18.41 17.072 18.289 16.9334 18.1303 16.8547C17.9715 16.7759 17.7879 16.7634 17.6199 16.82C17.4634 16.879 17.3118 16.9503 17.1666 17.0333V16C17.1681 15.7271 17.2533 15.4613 17.4106 15.2383C17.568 15.0154 17.79 14.8461 18.0466 14.7533C18.2146 14.6968 18.3532 14.5758 18.432 14.417C18.5107 14.2582 18.5232 14.0747 18.4666 13.9067C18.41 13.7387 18.289 13.6001 18.1303 13.5213C17.9715 13.4426 17.7879 13.4301 17.6199 13.4867C17.4634 13.5456 17.3118 13.617 17.1666 13.7V11.3333C17.1666 11.1565 17.2369 10.987 17.3619 10.8619C17.4869 10.7369 17.6565 10.6667 17.8333 10.6667C18.0101 10.6667 18.1797 10.7369 18.3047 10.8619C18.4297 10.987 18.4999 11.1565 18.4999 11.3333C18.499 11.4499 18.4692 11.5644 18.4133 11.6667C18.3689 11.7424 18.3399 11.8261 18.328 11.913C18.3161 11.9999 18.3214 12.0883 18.3437 12.1732C18.366 12.258 18.4048 12.3376 18.4579 12.4074C18.5111 12.4773 18.5774 12.5359 18.6533 12.58C18.7294 12.6241 18.8134 12.6527 18.9006 12.6641C18.9878 12.6756 19.0764 12.6697 19.1613 12.6468C19.2462 12.6238 19.3257 12.5843 19.3953 12.5306C19.4648 12.4768 19.5231 12.4097 19.5666 12.3333C19.6165 12.2253 19.6588 12.1139 19.6933 12C19.7397 11.9935 19.7868 11.9935 19.8333 12C20.0101 12 20.1797 12.0703 20.3047 12.1953C20.4297 12.3203 20.4999 12.4899 20.4999 12.6667C20.4989 12.7974 20.4595 12.9249 20.3866 13.0333C20.3321 13.1199 20.2564 13.191 20.1666 13.24C20.0128 13.3284 19.9004 13.4743 19.8541 13.6456C19.8079 13.8169 19.8315 13.9995 19.9199 14.1533C20.0084 14.3072 20.1542 14.4196 20.3255 14.4658C20.4968 14.5121 20.6795 14.4884 20.8333 14.4C20.953 14.3353 21.0648 14.257 21.1666 14.1667C21.3889 14.2904 21.5712 14.4752 21.6919 14.6992C21.8126 14.9232 21.8667 15.1771 21.8478 15.4309C21.8288 15.6846 21.7377 15.9277 21.5851 16.1313C21.4325 16.3349 21.2248 16.4906 20.9866 16.58H20.9599Z" fill="#6E778B"/>
</svg>
