<svg width="33" height="32" viewBox="0 0 33 32" fill="none" xmlns="http://www.w3.org/2000/svg">
<rect x="1" y="0.5" width="31" height="31" rx="3.5" fill="#FEFEFE" stroke="#F8F8F8"/>
<path d="M22.5 14.6666H19.1667V12.6666C19.1667 12.4898 19.0965 12.3203 18.9714 12.1952C18.8464 12.0702 18.6769 12 18.5 12H11.1667V9.99998C11.1667 9.82317 11.0965 9.6536 10.9714 9.52858C10.8464 9.40355 10.6769 9.33331 10.5 9.33331C10.3232 9.33331 10.1537 9.40355 10.0286 9.52858C9.90361 9.6536 9.83337 9.82317 9.83337 9.99998V22C9.83337 22.1768 9.90361 22.3464 10.0286 22.4714C10.1537 22.5964 10.3232 22.6666 10.5 22.6666C10.6769 22.6666 10.8464 22.5964 10.9714 22.4714C11.0965 22.3464 11.1667 22.1768 11.1667 22V20H22.5C22.6769 20 22.8464 19.9297 22.9714 19.8047C23.0965 19.6797 23.1667 19.5101 23.1667 19.3333V15.3333C23.1667 15.1565 23.0965 14.9869 22.9714 14.8619C22.8464 14.7369 22.6769 14.6666 22.5 14.6666ZM11.1667 13.3333H17.8334V14.6666H11.1667V13.3333ZM21.8334 18.6666H11.1667V16H21.8334V18.6666Z" fill="#6E778B"/>
</svg>
