<svg width="33" height="32" viewBox="0 0 33 32" fill="none" xmlns="http://www.w3.org/2000/svg">
<rect x="1" y="0.5" width="31" height="31" rx="3.5" fill="#FEFEFE" stroke="#F8F8F8"/>
<path d="M21.1667 9.33331H11.8334C11.3029 9.33331 10.7942 9.54403 10.4192 9.9191C10.0441 10.2942 9.83337 10.8029 9.83337 11.3333V20.6666C9.83337 21.1971 10.0441 21.7058 10.4192 22.0809C10.7942 22.4559 11.3029 22.6666 11.8334 22.6666H21.1667C21.2764 22.6651 21.3857 22.654 21.4934 22.6333L21.6934 22.5866H21.74H21.7734L22.02 22.4933L22.1067 22.4466C22.1734 22.4066 22.2467 22.3733 22.3134 22.3266C22.4024 22.2612 22.487 22.1899 22.5667 22.1133L22.6134 22.0533C22.6788 21.987 22.739 21.9157 22.7934 21.84L22.8534 21.7533C22.8999 21.6791 22.9401 21.601 22.9734 21.52C22.9917 21.488 23.0073 21.4545 23.02 21.42C23.0534 21.34 23.0734 21.2533 23.1 21.1666V21.0666C23.1378 20.9364 23.1602 20.8021 23.1667 20.6666V11.3333C23.1667 10.8029 22.956 10.2942 22.5809 9.9191C22.2058 9.54403 21.6971 9.33331 21.1667 9.33331ZM11.8334 21.3333C11.6566 21.3333 11.487 21.2631 11.362 21.1381C11.2369 21.013 11.1667 20.8435 11.1667 20.6666V17.7933L13.36 15.5933C13.422 15.5308 13.4958 15.4812 13.577 15.4474C13.6582 15.4135 13.7454 15.3961 13.8334 15.3961C13.9214 15.3961 14.0085 15.4135 14.0898 15.4474C14.171 15.4812 14.2447 15.5308 14.3067 15.5933L20.04 21.3333H11.8334ZM21.8334 20.6666C21.8327 20.7488 21.8169 20.8302 21.7867 20.9066C21.7715 20.9391 21.7536 20.9704 21.7334 21C21.7155 21.0282 21.6955 21.055 21.6734 21.08L18.1067 17.5133L18.6934 16.9266C18.7553 16.8642 18.8291 16.8146 18.9103 16.7807C18.9916 16.7469 19.0787 16.7294 19.1667 16.7294C19.2547 16.7294 19.3419 16.7469 19.4231 16.7807C19.5043 16.8146 19.5781 16.8642 19.64 16.9266L21.8334 19.1266V20.6666ZM21.8334 17.24L20.58 16C20.1985 15.638 19.6926 15.4362 19.1667 15.4362C18.6408 15.4362 18.1349 15.638 17.7534 16L17.1667 16.5866L15.2467 14.6666C14.8652 14.3046 14.3593 14.1028 13.8334 14.1028C13.3074 14.1028 12.8016 14.3046 12.42 14.6666L11.1667 15.9066V11.3333C11.1667 11.1565 11.2369 10.9869 11.362 10.8619C11.487 10.7369 11.6566 10.6666 11.8334 10.6666H21.1667C21.3435 10.6666 21.5131 10.7369 21.6381 10.8619C21.7631 10.9869 21.8334 11.1565 21.8334 11.3333V17.24Z" fill="#6E778B"/>
</svg>
