<svg width="33" height="32" viewBox="0 0 33 32" fill="none" xmlns="http://www.w3.org/2000/svg">
<rect x="1" y="0.5" width="31" height="31" rx="3.5" fill="#FEFEFE" stroke="#F8F8F8"/>
<path d="M12.5 15.3333C12.3681 15.3333 12.2392 15.3724 12.1296 15.4457C12.0199 15.5189 11.9345 15.623 11.884 15.7449C11.8336 15.8667 11.8204 16.0007 11.8461 16.13C11.8718 16.2594 11.9353 16.3781 12.0286 16.4714C12.1218 16.5646 12.2406 16.6281 12.3699 16.6538C12.4992 16.6796 12.6333 16.6664 12.7551 16.6159C12.8769 16.5654 12.981 16.48 13.0543 16.3704C13.1275 16.2607 13.1666 16.1318 13.1666 16C13.1666 15.8232 13.0964 15.6536 12.9714 15.5286C12.8463 15.4036 12.6768 15.3333 12.5 15.3333ZM20.5 15.3333C20.3681 15.3333 20.2392 15.3724 20.1296 15.4457C20.0199 15.5189 19.9345 15.623 19.884 15.7449C19.8336 15.8667 19.8204 16.0007 19.8461 16.13C19.8718 16.2594 19.9353 16.3781 20.0286 16.4714C20.1218 16.5646 20.2406 16.6281 20.3699 16.6538C20.4992 16.6796 20.6333 16.6664 20.7551 16.6159C20.8769 16.5654 20.981 16.48 21.0543 16.3704C21.1275 16.2607 21.1666 16.1318 21.1666 16C21.1666 15.8232 21.0964 15.6536 20.9714 15.5286C20.8463 15.4036 20.6768 15.3333 20.5 15.3333ZM21.8333 11.3333H11.1666C10.6362 11.3333 10.1275 11.544 9.75241 11.9191C9.37734 12.2942 9.16663 12.8029 9.16663 13.3333V18.6666C9.16663 19.1971 9.37734 19.7058 9.75241 20.0809C10.1275 20.4559 10.6362 20.6666 11.1666 20.6666H21.8333C22.3637 20.6666 22.8724 20.4559 23.2475 20.0809C23.6226 19.7058 23.8333 19.1971 23.8333 18.6666V13.3333C23.8333 12.8029 23.6226 12.2942 23.2475 11.9191C22.8724 11.544 22.3637 11.3333 21.8333 11.3333ZM22.5 18.6666C22.5 18.8435 22.4297 19.013 22.3047 19.1381C22.1797 19.2631 22.0101 19.3333 21.8333 19.3333H11.1666C10.9898 19.3333 10.8202 19.2631 10.6952 19.1381C10.5702 19.013 10.5 18.8435 10.5 18.6666V13.3333C10.5 13.1565 10.5702 12.9869 10.6952 12.8619C10.8202 12.7369 10.9898 12.6666 11.1666 12.6666H21.8333C22.0101 12.6666 22.1797 12.7369 22.3047 12.8619C22.4297 12.9869 22.5 13.1565 22.5 13.3333V18.6666ZM16.5 14C16.1044 14 15.7177 14.1173 15.3888 14.337C15.0599 14.5568 14.8036 14.8692 14.6522 15.2346C14.5008 15.6001 14.4612 16.0022 14.5384 16.3902C14.6156 16.7781 14.806 17.1345 15.0857 17.4142C15.3655 17.6939 15.7218 17.8844 16.1098 17.9616C16.4977 18.0387 16.8999 17.9991 17.2653 17.8477C17.6308 17.6964 17.9431 17.44 18.1629 17.1111C18.3827 16.7822 18.5 16.3955 18.5 16C18.5 15.4695 18.2892 14.9608 17.9142 14.5858C17.5391 14.2107 17.0304 14 16.5 14ZM16.5 16.6666C16.3681 16.6666 16.2392 16.6275 16.1296 16.5543C16.0199 16.481 15.9345 16.3769 15.884 16.2551C15.8336 16.1333 15.8204 15.9992 15.8461 15.8699C15.8718 15.7406 15.9353 15.6218 16.0286 15.5286C16.1218 15.4353 16.2406 15.3718 16.3699 15.3461C16.4992 15.3204 16.6333 15.3336 16.7551 15.3841C16.8769 15.4345 16.981 15.52 17.0543 15.6296C17.1275 15.7392 17.1666 15.8681 17.1666 16C17.1666 16.1768 17.0964 16.3464 16.9714 16.4714C16.8463 16.5964 16.6768 16.6666 16.5 16.6666Z" fill="#6E778B"/>
</svg>
