<svg width="33" height="32" viewBox="0 0 33 32" fill="none" xmlns="http://www.w3.org/2000/svg">
<rect x="0.5" width="32" height="32" rx="4" fill="#FEFEFE"/>
<path d="M15.1667 22H13.8334C13.6566 22 13.487 22.0703 13.362 22.1953C13.2369 22.3203 13.1667 22.4899 13.1667 22.6667C13.1667 22.8435 13.2369 23.0131 13.362 23.1381C13.487 23.2631 13.6566 23.3334 13.8334 23.3334H15.1667C15.3435 23.3334 15.5131 23.2631 15.6381 23.1381C15.7631 23.0131 15.8334 22.8435 15.8334 22.6667C15.8334 22.4899 15.7631 22.3203 15.6381 22.1953C15.5131 22.0703 15.3435 22 15.1667 22ZM15.8334 19.3334H12.5C12.3232 19.3334 12.1537 19.4036 12.0286 19.5286C11.9036 19.6536 11.8334 19.8232 11.8334 20C11.8334 20.1768 11.9036 20.3464 12.0286 20.4714C12.1537 20.5964 12.3232 20.6667 12.5 20.6667H15.8334C16.0102 20.6667 16.1798 20.5964 16.3048 20.4714C16.4298 20.3464 16.5 20.1768 16.5 20C16.5 19.8232 16.4298 19.6536 16.3048 19.5286C16.1798 19.4036 16.0102 19.3334 15.8334 19.3334ZM20.5 9.33335C20.5 9.15654 20.4298 8.98697 20.3048 8.86195C20.1798 8.73692 20.0102 8.66669 19.8334 8.66669H10.5C10.3232 8.66669 10.1537 8.73692 10.0286 8.86195C9.90361 8.98697 9.83337 9.15654 9.83337 9.33335C9.83337 9.51016 9.90361 9.67973 10.0286 9.80476C10.1537 9.92978 10.3232 10 10.5 10H19.8334C20.0102 10 20.1798 9.92978 20.3048 9.80476C20.4298 9.67973 20.5 9.51016 20.5 9.33335ZM22.5 11.3334H12.5C12.3232 11.3334 12.1537 11.4036 12.0286 11.5286C11.9036 11.6536 11.8334 11.8232 11.8334 12C11.8334 12.1768 11.9036 12.3464 12.0286 12.4714C12.1537 12.5964 12.3232 12.6667 12.5 12.6667H22.5C22.6769 12.6667 22.8464 12.5964 22.9714 12.4714C23.0965 12.3464 23.1667 12.1768 23.1667 12C23.1667 11.8232 23.0965 11.6536 22.9714 11.5286C22.8464 11.4036 22.6769 11.3334 22.5 11.3334ZM21.1667 14H15.1667C14.9899 14 14.8203 14.0703 14.6953 14.1953C14.5703 14.3203 14.5 14.4899 14.5 14.6667C14.5 14.8435 14.5703 15.0131 14.6953 15.1381C14.8203 15.2631 14.9899 15.3334 15.1667 15.3334H21.1667C21.3435 15.3334 21.5131 15.2631 21.6381 15.1381C21.7631 15.0131 21.8334 14.8435 21.8334 14.6667C21.8334 14.4899 21.7631 14.3203 21.6381 14.1953C21.5131 14.0703 21.3435 14 21.1667 14ZM17.8334 16.6667H13.8334C13.6566 16.6667 13.487 16.7369 13.362 16.8619C13.2369 16.987 13.1667 17.1565 13.1667 17.3334C13.1667 17.5102 13.2369 17.6797 13.362 17.8048C13.487 17.9298 13.6566 18 13.8334 18H17.8334C18.0102 18 18.1798 17.9298 18.3048 17.8048C18.4298 17.6797 18.5 17.5102 18.5 17.3334C18.5 17.1565 18.4298 16.987 18.3048 16.8619C18.1798 16.7369 18.0102 16.6667 17.8334 16.6667Z" fill="#6E778B"/>
</svg>
