<svg width="33" height="32" viewBox="0 0 33 32" fill="none" xmlns="http://www.w3.org/2000/svg">
<rect x="1" y="0.5" width="31" height="31" rx="3.5" fill="#FEFEFE" stroke="#F8F8F8"/>
<path d="M21.1667 13.3333H20.5V11.3333C20.5 10.8029 20.2893 10.2942 19.9143 9.9191C19.5392 9.54403 19.0305 9.33331 18.5 9.33331H11.8334C11.3029 9.33331 10.7942 9.54403 10.4192 9.9191C10.0441 10.2942 9.83337 10.8029 9.83337 11.3333V19.3333C9.83403 19.4649 9.87363 19.5934 9.94719 19.7026C10.0207 19.8117 10.125 19.8966 10.2467 19.9466C10.3258 19.984 10.4126 20.0022 10.5 20C10.5878 20.0005 10.6748 19.9837 10.756 19.9505C10.8372 19.9173 10.9111 19.8684 10.9734 19.8066L12.8467 17.9266H13.8334V18.8866C13.8334 19.4171 14.0441 19.9258 14.4192 20.3009C14.7942 20.6759 15.3029 20.8866 15.8334 20.8866H20.4467L22.0267 22.4733C22.089 22.5351 22.1629 22.584 22.2441 22.6172C22.3253 22.6503 22.4123 22.6672 22.5 22.6666C22.5875 22.6689 22.6743 22.6506 22.7534 22.6133C22.8751 22.5633 22.9793 22.4784 23.0529 22.3692C23.1264 22.2601 23.1661 22.1316 23.1667 22V15.3333C23.1667 14.8029 22.956 14.2942 22.5809 13.9191C22.2058 13.544 21.6971 13.3333 21.1667 13.3333ZM13.8334 15.3333V16.5933H12.5734C12.4856 16.5928 12.3987 16.6096 12.3174 16.6428C12.2362 16.676 12.1623 16.7249 12.1 16.7866L11.1667 17.7266V11.3333C11.1667 11.1565 11.2369 10.9869 11.362 10.8619C11.487 10.7369 11.6566 10.6666 11.8334 10.6666H18.5C18.6769 10.6666 18.8464 10.7369 18.9714 10.8619C19.0965 10.9869 19.1667 11.1565 19.1667 11.3333V13.3333H15.8334C15.3029 13.3333 14.7942 13.544 14.4192 13.9191C14.0441 14.2942 13.8334 14.8029 13.8334 15.3333ZM21.8334 20.3933L21.1667 19.7266C21.105 19.6637 21.0313 19.6135 20.9501 19.5792C20.8688 19.5449 20.7816 19.527 20.6934 19.5266H15.8334C15.6566 19.5266 15.487 19.4564 15.362 19.3314C15.2369 19.2064 15.1667 19.0368 15.1667 18.86V15.3333C15.1667 15.1565 15.2369 14.9869 15.362 14.8619C15.487 14.7369 15.6566 14.6666 15.8334 14.6666H21.1667C21.3435 14.6666 21.5131 14.7369 21.6381 14.8619C21.7631 14.9869 21.8334 15.1565 21.8334 15.3333V20.3933Z" fill="#6E778B"/>
</svg>
