<svg width="32" height="32" viewBox="0 0 32 32" fill="none" xmlns="http://www.w3.org/2000/svg">
<rect x="0.5" y="0.5" width="31" height="31" rx="3.5" fill="#4056B7" stroke="#FEFEFE"/>
<path d="M20.6666 9.33334H11.3333C10.8028 9.33334 10.2941 9.54405 9.91904 9.91912C9.54397 10.2942 9.33325 10.8029 9.33325 11.3333V20.6667C9.33325 21.1971 9.54397 21.7058 9.91904 22.0809C10.2941 22.456 10.8028 22.6667 11.3333 22.6667H20.6666C20.7762 22.6651 20.8855 22.654 20.9933 22.6333L21.1933 22.5867H21.2399H21.2733L21.5199 22.4933L21.6066 22.4467C21.6733 22.4067 21.7466 22.3733 21.8133 22.3267C21.9023 22.2612 21.9869 22.1899 22.0666 22.1133L22.1133 22.0533C22.1787 21.987 22.2389 21.9157 22.2933 21.84L22.3533 21.7533C22.3998 21.6791 22.44 21.6011 22.4733 21.52C22.4915 21.488 22.5072 21.4546 22.5199 21.42C22.5533 21.34 22.5733 21.2533 22.5999 21.1667V21.0667C22.6377 20.9364 22.6601 20.8022 22.6666 20.6667V11.3333C22.6666 10.8029 22.4559 10.2942 22.0808 9.91912C21.7057 9.54405 21.197 9.33334 20.6666 9.33334ZM11.3333 21.3333C11.1564 21.3333 10.9869 21.2631 10.8618 21.1381C10.7368 21.0131 10.6666 20.8435 10.6666 20.6667V17.7933L12.8599 15.5933C12.9219 15.5309 12.9956 15.4813 13.0769 15.4474C13.1581 15.4136 13.2452 15.3961 13.3333 15.3961C13.4213 15.3961 13.5084 15.4136 13.5896 15.4474C13.6709 15.4813 13.7446 15.5309 13.8066 15.5933L19.5399 21.3333H11.3333ZM21.3333 20.6667C21.3326 20.7489 21.3168 20.8302 21.2866 20.9067C21.2713 20.9392 21.2535 20.9704 21.2333 21C21.2154 21.0282 21.1954 21.055 21.1733 21.08L17.6066 17.5133L18.1933 16.9267C18.2552 16.8642 18.329 16.8146 18.4102 16.7807C18.4914 16.7469 18.5786 16.7295 18.6666 16.7295C18.7546 16.7295 18.8417 16.7469 18.923 16.7807C19.0042 16.8146 19.0779 16.8642 19.1399 16.9267L21.3333 19.1267V20.6667ZM21.3333 17.24L20.0799 16C19.6984 15.638 19.1925 15.4362 18.6666 15.4362C18.1407 15.4362 17.6348 15.638 17.2533 16L16.6666 16.5867L14.7466 14.6667C14.3651 14.3047 13.8592 14.1029 13.3333 14.1029C12.8073 14.1029 12.3014 14.3047 11.9199 14.6667L10.6666 15.9067V11.3333C10.6666 11.1565 10.7368 10.987 10.8618 10.8619C10.9869 10.7369 11.1564 10.6667 11.3333 10.6667H20.6666C20.8434 10.6667 21.013 10.7369 21.138 10.8619C21.263 10.987 21.3333 11.1565 21.3333 11.3333V17.24Z" fill="#FEFEFE"/>
</svg>
