<svg width="32" height="32" viewBox="0 0 32 32" fill="none" xmlns="http://www.w3.org/2000/svg">
<rect x="0.5" y="0.5" width="31" height="31" rx="3.5" fill="#FEFEFE" stroke="#F8F8F8"/>
<path d="M20.6666 9.33334H11.3333C10.8029 9.33334 10.2942 9.54405 9.9191 9.91912C9.54403 10.2942 9.33331 10.8029 9.33331 11.3333V20.6667C9.33331 21.1971 9.54403 21.7058 9.9191 22.0809C10.2942 22.456 10.8029 22.6667 11.3333 22.6667H20.6666C20.7763 22.6651 20.8856 22.654 20.9933 22.6333L21.1933 22.5867H21.24H21.2733L21.52 22.4933L21.6066 22.4467C21.6733 22.4067 21.7466 22.3733 21.8133 22.3267C21.9023 22.2612 21.987 22.1899 22.0666 22.1133L22.1133 22.0533C22.1788 21.987 22.2389 21.9157 22.2933 21.84L22.3533 21.7533C22.3999 21.6791 22.44 21.6011 22.4733 21.52C22.4916 21.488 22.5072 21.4546 22.52 21.42C22.5533 21.34 22.5733 21.2533 22.6 21.1667V21.0667C22.6378 20.9364 22.6602 20.8022 22.6666 20.6667V11.3333C22.6666 10.8029 22.4559 10.2942 22.0809 9.91912C21.7058 9.54405 21.1971 9.33334 20.6666 9.33334ZM11.3333 21.3333C11.1565 21.3333 10.9869 21.2631 10.8619 21.1381C10.7369 21.0131 10.6666 20.8435 10.6666 20.6667V17.7933L12.86 15.5933C12.922 15.5309 12.9957 15.4813 13.0769 15.4474C13.1582 15.4136 13.2453 15.3961 13.3333 15.3961C13.4213 15.3961 13.5085 15.4136 13.5897 15.4474C13.6709 15.4813 13.7447 15.5309 13.8066 15.5933L19.54 21.3333H11.3333ZM21.3333 20.6667C21.3327 20.7489 21.3169 20.8302 21.2866 20.9067C21.2714 20.9392 21.2536 20.9704 21.2333 21C21.2155 21.0282 21.1954 21.055 21.1733 21.08L17.6066 17.5133L18.1933 16.9267C18.2553 16.8642 18.329 16.8146 18.4103 16.7807C18.4915 16.7469 18.5786 16.7295 18.6666 16.7295C18.7547 16.7295 18.8418 16.7469 18.923 16.7807C19.0043 16.8146 19.078 16.8642 19.14 16.9267L21.3333 19.1267V20.6667ZM21.3333 17.24L20.08 16C19.6985 15.638 19.1926 15.4362 18.6666 15.4362C18.1407 15.4362 17.6348 15.638 17.2533 16L16.6666 16.5867L14.7466 14.6667C14.3651 14.3047 13.8592 14.1029 13.3333 14.1029C12.8074 14.1029 12.3015 14.3047 11.92 14.6667L10.6666 15.9067V11.3333C10.6666 11.1565 10.7369 10.987 10.8619 10.8619C10.9869 10.7369 11.1565 10.6667 11.3333 10.6667H20.6666C20.8435 10.6667 21.013 10.7369 21.1381 10.8619C21.2631 10.987 21.3333 11.1565 21.3333 11.3333V17.24Z" fill="#6E778B"/>
</svg>
