<svg width="32" height="32" viewBox="0 0 32 32" fill="none" xmlns="http://www.w3.org/2000/svg">
<rect x="0.5" y="0.5" width="31" height="31" rx="3.5" fill="#4056B7" stroke="#FEFEFE"/>
<path d="M12.1143 18.2857C12.3871 18.2857 12.6487 18.1773 12.8416 17.9845C13.0345 17.7916 13.1429 17.5299 13.1429 17.2571C13.1462 17.2229 13.1462 17.1885 13.1429 17.1543L15.056 15.2411H15.2138H15.3715L16.4755 16.3451C16.4755 16.3451 16.4755 16.3794 16.4755 16.4C16.4755 16.6728 16.5838 16.9344 16.7767 17.1273C16.9696 17.3202 17.2312 17.4286 17.504 17.4286C17.7768 17.4286 18.0385 17.3202 18.2313 17.1273C18.4242 16.9344 18.5326 16.6728 18.5326 16.4V16.3451L21.0286 13.8286C21.232 13.8286 21.4309 13.7682 21.6001 13.6552C21.7692 13.5422 21.901 13.3816 21.9789 13.1936C22.0567 13.0057 22.0771 12.7989 22.0374 12.5993C21.9977 12.3998 21.8998 12.2165 21.7559 12.0727C21.6121 11.9288 21.4288 11.8309 21.2293 11.7912C21.0298 11.7515 20.8229 11.7719 20.635 11.8497C20.447 11.9276 20.2864 12.0594 20.1734 12.2286C20.0604 12.3977 20 12.5966 20 12.8C19.9967 12.8342 19.9967 12.8687 20 12.9029L17.5246 15.3783H17.4149L16.2286 14.1714C16.2286 13.8986 16.1202 13.637 15.9273 13.4441C15.7345 13.2512 15.4728 13.1429 15.2 13.1429C14.9272 13.1429 14.6656 13.2512 14.4727 13.4441C14.2798 13.637 14.1715 13.8986 14.1715 14.1714L12.1143 16.2286C11.8415 16.2286 11.5799 16.3369 11.387 16.5298C11.1941 16.7227 11.0858 16.9844 11.0858 17.2571C11.0858 17.5299 11.1941 17.7916 11.387 17.9845C11.5799 18.1773 11.8415 18.2857 12.1143 18.2857ZM21.3715 21.0286H9.71432V9.37143C9.71432 9.18957 9.64208 9.01515 9.51348 8.88656C9.38489 8.75796 9.21047 8.68571 9.02861 8.68571C8.84675 8.68571 8.67233 8.75796 8.54374 8.88656C8.41514 9.01515 8.3429 9.18957 8.3429 9.37143V21.7143C8.3429 21.8962 8.41514 22.0706 8.54374 22.1992C8.67233 22.3278 8.84675 22.4 9.02861 22.4H21.3715C21.5533 22.4 21.7277 22.3278 21.8563 22.1992C21.9849 22.0706 22.0572 21.8962 22.0572 21.7143C22.0572 21.5324 21.9849 21.358 21.8563 21.2294C21.7277 21.1008 21.5533 21.0286 21.3715 21.0286Z" fill="#FEFEFE"/>
</svg>
