<svg width="32" height="32" viewBox="0 0 32 32" fill="none" xmlns="http://www.w3.org/2000/svg">
<rect x="0.5" y="0.5" width="31" height="31" rx="3.5" fill="#FEFEFE" stroke="#F8F8F8"/>
<path d="M12.5714 18.2857C12.8442 18.2857 13.1058 18.1774 13.2987 17.9845C13.4916 17.7916 13.6 17.53 13.6 17.2572C13.6033 17.223 13.6033 17.1885 13.6 17.1543L15.5131 15.2412H15.6708H15.8286L16.9326 16.3452C16.9326 16.3452 16.9326 16.3794 16.9326 16.4C16.9326 16.6728 17.0409 16.9344 17.2338 17.1273C17.4267 17.3202 17.6883 17.4286 17.9611 17.4286C18.2339 17.4286 18.4955 17.3202 18.6884 17.1273C18.8813 16.9344 18.9897 16.6728 18.9897 16.4V16.3452L21.4857 13.8286C21.6891 13.8286 21.888 13.7683 22.0571 13.6552C22.2263 13.5422 22.3581 13.3816 22.436 13.1936C22.5138 13.0057 22.5342 12.7989 22.4945 12.5994C22.4548 12.3998 22.3569 12.2166 22.213 12.0727C22.0692 11.9289 21.8859 11.8309 21.6864 11.7912C21.4868 11.7515 21.28 11.7719 21.0921 11.8497C20.9041 11.9276 20.7435 12.0594 20.6305 12.2286C20.5175 12.3977 20.4571 12.5966 20.4571 12.8C20.4538 12.8342 20.4538 12.8687 20.4571 12.9029L17.9817 15.3783H17.872L16.6857 14.1714C16.6857 13.8987 16.5773 13.637 16.3844 13.4441C16.1915 13.2512 15.9299 13.1429 15.6571 13.1429C15.3843 13.1429 15.1227 13.2512 14.9298 13.4441C14.7369 13.637 14.6286 13.8987 14.6286 14.1714L12.5714 16.2286C12.2986 16.2286 12.037 16.337 11.8441 16.5298C11.6512 16.7227 11.5428 16.9844 11.5428 17.2572C11.5428 17.53 11.6512 17.7916 11.8441 17.9845C12.037 18.1774 12.2986 18.2857 12.5714 18.2857ZM21.8286 21.0286H10.1714V9.37144C10.1714 9.18958 10.0992 9.01517 9.97058 8.88657C9.84198 8.75797 9.66756 8.68573 9.4857 8.68573C9.30384 8.68573 9.12943 8.75797 9.00083 8.88657C8.87223 9.01517 8.79999 9.18958 8.79999 9.37144V21.7143C8.79999 21.8962 8.87223 22.0706 9.00083 22.1992C9.12943 22.3278 9.30384 22.4 9.4857 22.4H21.8286C22.0104 22.4 22.1848 22.3278 22.3134 22.1992C22.442 22.0706 22.5143 21.8962 22.5143 21.7143C22.5143 21.5324 22.442 21.358 22.3134 21.2294C22.1848 21.1008 22.0104 21.0286 21.8286 21.0286Z" fill="#6E778B"/>
</svg>
