<svg width="32" height="32" viewBox="0 0 32 32" fill="none" xmlns="http://www.w3.org/2000/svg">
<rect x="0.5" y="0.5" width="31" height="31" rx="3.5" fill="#FEFEFE" stroke="#F8F8F8"/>
<path d="M21.9999 14.6667H18.6666V12.6667C18.6666 12.4899 18.5963 12.3203 18.4713 12.1953C18.3463 12.0702 18.1767 12 17.9999 12H10.6666V10C10.6666 9.82319 10.5963 9.65362 10.4713 9.5286C10.3463 9.40357 10.1767 9.33333 9.99992 9.33333C9.82311 9.33333 9.65354 9.40357 9.52851 9.5286C9.40349 9.65362 9.33325 9.82319 9.33325 10V22C9.33325 22.1768 9.40349 22.3464 9.52851 22.4714C9.65354 22.5964 9.82311 22.6667 9.99992 22.6667C10.1767 22.6667 10.3463 22.5964 10.4713 22.4714C10.5963 22.3464 10.6666 22.1768 10.6666 22V20H21.9999C22.1767 20 22.3463 19.9298 22.4713 19.8047C22.5963 19.6797 22.6666 19.5101 22.6666 19.3333V15.3333C22.6666 15.1565 22.5963 14.987 22.4713 14.8619C22.3463 14.7369 22.1767 14.6667 21.9999 14.6667ZM10.6666 13.3333H17.3333V14.6667H10.6666V13.3333ZM21.3333 18.6667H10.6666V16H21.3333V18.6667Z" fill="#6E778B"/>
</svg>
